<svg xmlns="http://www.w3.org/2000/svg" viewBox="0 0 258 90"><title>logo</title><path d="M7.037,61.112,25.493,67.98,27.9,88.666l5.42-17.3,12.934,4.89a6.24,6.24,0,0,0,7.936-4.093L68.352,27.606l-7.906-3.06,2.46-7.439L26.448,2.273C22.316.685,19.529.523,16.509,6.555L2.56,49.805l7.663,3Z" fill="#be1d7b" fill-rule="evenodd"/><path d="M38.938,42.016c5.019,2.272,8.318,7.991,7.784,14.361l4.238.37A19.54,19.54,0,0,0,43.6,39.4a19.385,19.385,0,0,0,10.144-15.82l-4.239-.37c-.5,6.021-4.288,10.875-9.2,12.544a6.551,6.551,0,0,1,.261,2.477,6.366,6.366,0,0,1-1.628,3.788ZM35.59,33.267a4.314,4.314,0,0,1,3.652,4.846,4.279,4.279,0,0,1-4.407,4.142,4.316,4.316,0,0,1-3.653-4.847,4.279,4.279,0,0,1,4.408-4.141Zm-4.982,1.477a14.47,14.47,0,0,1-6.644-13.769l-4.238-.37a19.54,19.54,0,0,0,7.36,17.35,19.387,19.387,0,0,0-10.144,15.82l4.239.371c.524-6.239,4.566-11.225,9.735-12.713a6.387,6.387,0,0,1-1.057-4.14,6.529,6.529,0,0,1,.749-2.549ZM26.835,61.812l-4.158-.363.769-9.16c.872-5.779,4.6-8.843,8.561-9.666a4.92,4.92,0,0,0,5.794.343c3.723,1.3,6.991,4.968,6.954,11.71l-.724,8.639-4.144-.363.753-9.041a6.422,6.422,0,0,0-5.951-6.766,6.34,6.34,0,0,0-7.141,5.991l-.713,8.676ZM30.813,14.4l-.743,8.674A6.561,6.561,0,0,0,43.1,24.582l.764-9.041,4.143.362-.725,8.639C46.32,30.435,43.2,33.5,39.8,34.562a5.226,5.226,0,0,0-4.088-2.771,5.144,5.144,0,0,0-4.3,1.8C28.246,31.817,25.8,28.356,25.887,23.2l.768-9.16Z" fill="#fff" fill-rule="evenodd"/><path d="M91.263,49.847l.078-24.633,5.152-.022-.073,23.08,21.956-.095c2.837-.068,3.975,1.98,3.785,5.753l-27.7.12.013-4.217-3.206.014Zm94.92-16.87.007-2.4-20.607.089-.073,23.08-5.152.023.023-7.213.023-7.212.022-7.213q.008-2.036.013-4.072c.006-1.766,1.152-3.138,3.508-3.156L188,24.8l-.01,3.5,3.364-.014-.025,8.036-9.826,6.37,9.771,10.94-7.3.031L170.5,38.5l7.23-.031,8.458-5.49ZM192.4,53.626l.077-24.236,4.493-.02.015-4.613,26.418-.115-.019,5.77-25.759.112-.018,5.77,20.607-.09-.017,5.77-20.608.089-.019,5.771,25.76-.112c.09,2.874-.78,5.032-3.54,5.785l-27.39.119Zm32.045-.139.055-17.31,2.345-.01-.01,3.224,2.806-.012-.026,8.316,20.607-.09L250.28,30.3l-21.9.094-3.864.017.018-5.769,28.336-.123,2.566,2.874-.067,21.234q-.177,4.539-4.222,4.748l-26.7.116ZM141.7,25l12.5,28.8-5.727.025-9.658-22.239-8.959,20.41c-.5,1.152-.931,2.069-2.883,1.922l-3.684.016L134.063,29.4l4.227-.019.014-4.366Z" fill="#161814" fill-rule="evenodd"/><path d="M255.44,74.167l-1.173,0-.01-5.323-4.691.01.011,5.323-1.172,0-.015-6.655,7.036-.014Zm-9.384-1.311-.008-3.993-4.69.01.008,3.993ZM240.2,74.2l-.014-6.654,7.035-.015.014,6.654Zm-2.36-6.649,1.173,0,.014,6.655-1.173,0Zm-8.208.017,7.036-.015,0,1.331-5.863.012.008,3.993,5.863-.012,0,1.33-7.036.016Zm-4.039.009,2.881,6.648-1.3,0-2.225-5.135-2.2,5.144-1.3,0,2.853-6.661Zm-9.432,6.674-.01-5.324-2.932.007,0-1.331,7.036-.015,0,1.331-2.931.007.011,5.322Zm-4.118-6.645.014,6.654-7.035.015L205,67.62l1.173,0,.012,5.323,4.69-.01-.012-5.323Zm-14.065,3.024,4.691-.01,0-1.664-4.69.01ZM196.8,67.637l7.036-.015.009,4.325-5.863.012,0,2.33-1.172,0Zm-1.159,6.657-1.172,0-.01-4.565-2.679,3.906h-.489l-2.7-3.893.009,4.565-1.172,0-.014-6.654,1.221,0,2.891,4.171,2.874-4.183,1.222,0Zm-10.556-1.309-.009-3.992-4.69.009L180.391,73Zm-5.86,1.344-.014-6.655,7.036-.015.014,6.654ZM171,67.692l7.036-.015,0,1.331-5.863.012.008,3.992L178.047,73l0,1.331-7.035.015Zm-9.966.021,1.759,0,0,2-1.759,0Zm.01,4.658,1.758,0,.005,2-1.759,0ZM158.1,67.719l1.759,0,0,2-1.759,0Zm.01,4.658,1.759,0,0,2-1.758,0ZM145.8,74.4l-.012-5.324-2.931.006,0-1.331,7.036-.015,0,1.331-2.932.006.012,5.324Zm-11.139.023-.015-6.654,7.036-.015,0,1.331-5.862.012,0,1.331,4.69-.01,0,1.331-4.691.01,0,1.331,5.863-.013,0,1.331Zm-1.173,0-1.173,0-.011-5.323-4.69.01.011,5.323-1.173,0-.014-6.653,7.035-.016ZM124.1,69.676v-.554l-4.691.01.012,5.324-1.173,0q0-.832,0-1.663t0-1.664q0-.833,0-1.664c0-.554,0-1.109,0-1.663l7.036-.016,0,2.662-2.228,1.464,2.237,2.529-1.661,0-3.086-3.505,1.646,0Zm-14.061,4.8-.014-6.654,7.035-.015,0,1.331-5.863.012,0,1.331,4.69-.01,0,1.331-4.691.01,0,1.331,5.863-.012,0,1.33Zm-5.277.012-.011-5.324-2.932.006,0-1.33,7.035-.016,0,1.332-2.931,0,.011,5.324Zm-4.1.008-1.172,0-.012-5.323-4.69.009.011,5.324-1.172,0-.015-6.654,7.036-.015Zm-9.395-6.634,1.173,0,.015,6.653-1.173,0Z" fill="#161814"/></svg>