<svg xmlns="http://www.w3.org/2000/svg" xmlns:xlink="http://www.w3.org/1999/xlink" viewBox="0 0 1238 345"><defs><clipPath id="a"><rect x="-2" width="1240" height="345" fill="none"/></clipPath></defs><title>bg-banners-home</title><g clip-path="url(#a)"><g opacity="0.04"><path d="M663.926,231.079c63.883,28.913,105.866,101.71,99.067,182.776l53.945,4.714c7.617-90.794-30.7-173.791-93.68-220.814C793.153,162.343,844.743,87.2,852.361-3.6L798.41-8.31c-6.43,76.63-54.581,138.418-117.078,159.66a83.534,83.534,0,0,1,3.315,31.523,81,81,0,0,1-20.721,48.206Zm-42.61-111.35c28.323,2.474,49.137,30.089,46.488,61.673s-27.764,55.191-56.087,52.717-49.143-30.091-46.492-61.681,27.763-55.185,56.091-52.709Zm-63.408,18.806c-55.614-32.768-90.824-100.486-84.555-175.244L419.41-41.421c-7.618,90.792,30.7,173.8,93.679,220.812-69.9,35.412-121.485,110.558-129.1,201.352l53.95,4.715c6.662-79.4,58.108-142.855,123.9-161.8a81.236,81.236,0,0,1-13.457-52.688,83.119,83.119,0,0,1,9.526-32.437ZM509.89,483.029l-52.912-4.622,9.78-116.58c11.1-73.547,58.518-112.549,108.962-123.023a62.57,62.57,0,0,0,73.738,4.363c47.385,16.55,88.973,63.234,88.51,149.041l-9.224,109.944-52.737-4.61,9.584-115.068c1.554-42.052-27.453-82.188-75.734-86.118-52.334-4.989-88.973,33.264-90.892,76.247L509.89,483.029ZM560.516-120.38l-9.454,110.4c-5.268,42.688,24.471,86.737,76.87,90.9,48.236,4.5,83.5-30.02,88.978-71.726l9.723-115.058,52.736,4.605L770.144,8.682c-12.259,75-51.937,114-95.226,127.535-10.873-19.6-29.691-33.318-52.031-35.273-21.089-1.84-40.836,7.2-54.737,22.885-40.3-22.556-71.488-66.607-70.327-132.249L507.6-125Z" fill="#161814" fill-rule="evenodd"/><path d="M240.926,78.079c63.883,28.913,105.866,101.71,99.067,182.776l53.945,4.714c7.617-90.794-30.7-173.791-93.68-220.814C370.153,9.343,421.743-65.8,429.361-156.6L375.41-161.31C368.98-84.68,320.829-22.892,258.332-1.65a83.534,83.534,0,0,1,3.315,31.523,81,81,0,0,1-20.721,48.206Zm-42.61-111.35C226.639-30.8,247.453-3.182,244.8,28.4S217.04,83.593,188.717,81.119s-49.143-30.091-46.492-61.681,27.763-55.185,56.091-52.709ZM134.908-14.465C79.294-47.233,44.084-114.951,50.353-189.709L-3.59-194.421c-7.618,90.792,30.7,173.8,93.679,220.812C20.194,61.8-31.4,136.949-39.013,227.743l53.95,4.715c6.662-79.4,58.108-142.855,123.9-161.8a81.236,81.236,0,0,1-13.457-52.688,83.119,83.119,0,0,1,9.526-32.437ZM86.89,330.029l-52.912-4.622,9.78-116.58C54.855,135.28,102.276,96.278,152.72,85.8a62.57,62.57,0,0,0,73.738,4.363c47.385,16.55,88.973,63.234,88.51,149.041l-9.224,109.944-52.737-4.61,9.584-115.068c1.554-42.052-27.453-82.188-75.734-86.118-52.334-4.989-88.973,33.264-90.892,76.247L86.89,330.029ZM137.516-273.38l-9.454,110.4c-5.268,42.688,24.471,86.737,76.87,90.9,48.236,4.5,83.5-30.02,88.978-71.726l9.723-115.058,52.736,4.6-9.225,109.943c-12.259,75-51.937,114-95.226,127.535-10.873-19.6-29.691-33.318-52.031-35.273-21.089-1.84-40.836,7.2-54.737,22.885-40.3-22.556-71.488-66.607-70.327-132.249L84.6-278Z" fill="#161814" fill-rule="evenodd"/><path d="M1110.926,78.079c63.883,28.913,105.866,101.71,99.067,182.776l53.945,4.714c7.617-90.794-30.7-173.791-93.68-220.814C1240.153,9.343,1291.743-65.8,1299.361-156.6l-53.951-4.713c-6.43,76.63-54.581,138.418-117.078,159.66a83.534,83.534,0,0,1,3.315,31.523,81,81,0,0,1-20.721,48.206Zm-42.61-111.35C1096.639-30.8,1117.453-3.182,1114.8,28.4s-27.764,55.191-56.087,52.717-49.143-30.091-46.492-61.681,27.763-55.185,56.091-52.709Zm-63.408,18.806c-55.614-32.768-90.824-100.486-84.555-175.244l-53.943-4.712c-7.618,90.792,30.7,173.8,93.679,220.812C890.194,61.8,838.6,136.949,830.987,227.743l53.95,4.715c6.662-79.4,58.108-142.855,123.9-161.8a81.236,81.236,0,0,1-13.457-52.688,83.119,83.119,0,0,1,9.526-32.437ZM956.89,330.029l-52.912-4.622,9.78-116.58C924.855,135.28,972.276,96.278,1022.72,85.8a62.57,62.57,0,0,0,73.738,4.363c47.385,16.55,88.973,63.234,88.51,149.041l-9.224,109.944-52.737-4.61,9.584-115.068c1.554-42.052-27.453-82.188-75.734-86.118-52.334-4.989-88.973,33.264-90.892,76.247L956.89,330.029Zm50.626-603.409-9.454,110.4c-5.268,42.688,24.471,86.737,76.87,90.9,48.236,4.5,83.5-30.02,88.978-71.726l9.723-115.058,52.736,4.6-9.225,109.943c-12.259,75-51.937,114-95.226,127.535-10.873-19.6-29.691-33.318-52.031-35.273-21.089-1.84-40.836,7.2-54.737,22.885-40.3-22.556-71.488-66.607-70.327-132.249L954.6-278Z" fill="#161814" fill-rule="evenodd"/></g></g></svg>