<svg xmlns="http://www.w3.org/2000/svg" viewBox="0 0 589 259"><title>bgheader</title><path d="M424.666,202.642,580.005,0h-1.26L425.573,199.815,519.716,5.571A3.087,3.087,0,0,0,523.84,3l14.54-3h-4.944L523.8,1.99a3.158,3.158,0,0,0-.169-.555,3.09,3.09,0,0,0-.86-1.157L522.949,0h-4.831l.3.593a3.119,3.119,0,0,0-.6,1.048L513.893,0H511.3l6.332,2.652a3.123,3.123,0,0,0,.215,1.106L398.218,56.589,358.877,73.963a3.107,3.107,0,0,0-2.326-1.791L369.129,0h-1.015L355.536,72.171a3.138,3.138,0,0,0-.7.194,3.093,3.093,0,0,0-.868.564L334.587,42.468l-6.671-10.486a3.1,3.1,0,0,0-.2-4.994L344.356,0h-1.174L326.8,26.573a3.077,3.077,0,0,0-1.686.008L314.759,0h-1.073L324.2,26.994a3.111,3.111,0,0,0-1.125,1.405L251.281,15.594a3.05,3.05,0,0,0-2.158-3.222L252.179,0h-1.03L248.13,12.219c-.1,0-.2.017-.3.029L245.874,0h-1.012l2,12.522a3.1,3.1,0,0,0-1.221,1.027L223.585,0h-1.911l23.533,14.458a3.207,3.207,0,0,0-.09.363L137.3,8.237a3.074,3.074,0,0,0-.22-.974,3.113,3.113,0,0,0-2.258-1.85L136.4,0h-1.042l-1.566,5.39a2.955,2.955,0,0,0-2.083,1.231L122.757,0h-1.681l10.172,7.525c-.027.085-.057.169-.077.257L62.332,1.128,50.66,0h-10.4L63.249,2.221l67.869,6.561a3.058,3.058,0,0,0,.212.893,3.105,3.105,0,0,0,.739,1.061l-4.521,12.527-20.065,55.6a2.963,2.963,0,0,0-2.313.787L6.31,2.436,3.191,0H1.567L104.544,80.425A3.1,3.1,0,0,0,108.23,84.9l45.437,80.12L1.36,0H0L154.507,167.407a3.11,3.11,0,0,0,3.6,4.852,3.07,3.07,0,0,0,.579-.322l.129.14-.095-.168a3.113,3.113,0,0,0,1.088-3.634l10.376-2.284,93.246-20.532,62.592,104.269a3.118,3.118,0,0,0,2.932,5.472c.1-.04.177-.1.266-.144l.043.071-.028-.08a3.081,3.081,0,0,0,.536-5.082L420.3,205.883a3.054,3.054,0,0,0,.2.8,3.16,3.16,0,0,0,.34.6l-.458.946.6-.78a3.111,3.111,0,1,0,3.684-4.806Zm-65.535-127.7,38.81-17.139L517.575,4.973l-10.213,9.069L393.474,115.171a3.113,3.113,0,0,0-3.682-1,3.029,3.029,0,0,0-.275.149L365.506,86.888,357.643,77.9A3.1,3.1,0,0,0,359.131,74.944Zm20.726,72.015a3.1,3.1,0,0,0-1.53-1.594l1.26-2.534,11.265-22.674a3.07,3.07,0,0,0,1.145-.166l29.487,81.375-41.7-51.857A3.1,3.1,0,0,0,379.857,146.959ZM356.66,78.3l9.522,10.88,22.537,25.751a3.11,3.11,0,0,0,1.122,5.016l-11.7,23.538-.794,1.6a3,3,0,0,0-.367-.036L370.7,124.5,356.576,78.31C356.6,78.305,356.632,78.3,356.66,78.3Zm-2.611-.671a3.127,3.127,0,0,0,1.482.685l13.841,45.259,6.621,21.651c-.073.024-.147.036-.219.066a3.1,3.1,0,0,0-.934.62l-87.293-18.147a2.923,2.923,0,0,0-.6-1.708ZM324.883,32.482a3.093,3.093,0,0,0,2.164,0l21.059,33.1,5.2,8.18a3.1,3.1,0,0,0-.147,2.687,3.2,3.2,0,0,0,.228.42l-67.165,48.475a3.118,3.118,0,0,0-.58-.325l22.868-53.931Zm-1.794-1.711a3.073,3.073,0,0,0,.922,1.207L307.7,70.457l-23.039,54.335a3.067,3.067,0,0,0-.764.033l-4.067-16.864-19.5-80.88,62.544,2.669A3.061,3.061,0,0,0,323.089,30.771Zm-40.142,94.4a3.079,3.079,0,0,0-1.152,1.079L209.82,101.681a2.98,2.98,0,0,0-.811-2.389l17.3-24.54,33.141-47.008,19.069,79.072Zm-31.9-108.6,67.183,11.983L277.7,26.822l-17.624-.752-.171-.707-.3.433-9.045-8.453A3.135,3.135,0,0,0,251.046,16.568Zm-3.966,1.675a3.107,3.107,0,0,0,2.313-.033,3.065,3.065,0,0,0,.4-.215l9.23,8.626L218.964,83.435l-8.972,12.727ZM137.22,9.234l107.894,6.589a2.962,2.962,0,0,0,1.1,1.91L219.38,74.111l-11.6,24.367a3.092,3.092,0,0,0-2.261.048.239.239,0,0,0-.022.012l-38.394-48.38L136.026,11A3.108,3.108,0,0,0,137.22,9.234Zm-8.5,13.736,4.21-11.665a3.1,3.1,0,0,0,2.176.136l31.2,39.31,38.359,48.335a3.091,3.091,0,0,0-.771,1.045L146.808,88.974l-36.451-7.125a3.07,3.07,0,0,0-1.893-2.762ZM157.311,166.3a3.083,3.083,0,0,0-1.613.2c-.011,0-.02.012-.031.017L140.118,139.1l-31-54.664a3.1,3.1,0,0,0,1.106-1.6l36.887,7.21L203.636,101.1a3.04,3.04,0,0,0,.939,2.555Zm13.389-1.448-11.431,2.517a3.093,3.093,0,0,0-.945-.75l47.082-62.405a3.059,3.059,0,0,0,3.653-.758l43.449,33.464,10.014,7.713Zm83.631-27.79L209.719,102.7l71.693,24.472a3.09,3.09,0,0,0,.125,1.837L263.66,144.249Zm10.132,8.168.368-.081-.36-.278,17.586-14.99a3.1,3.1,0,0,0,2.652,1.1l32.643,93.165,7.733,22.07Zm62.843,104.014c-.032,0-.065,0-.1.01l-10.524-30.038-31-88.471a3.1,3.1,0,0,0,1.736-1.99l86.77,18.038a3.088,3.088,0,0,0,.59,3.582Zm93.05-44.5-91.644,44.627a3.065,3.065,0,0,0-.31-.093l26.828-55.871,20.384-42.449a3.087,3.087,0,0,0,3.574-.59l42.319,52.624A3.106,3.106,0,0,0,420.356,204.742Zm2.867-2.373c-.1,0-.2.014-.3.029l-30.033-82.88a3.106,3.106,0,0,0,1.06-3.431L518.754,5.264Z" fill="#161814" opacity="0.08"/></svg>