<svg xmlns="http://www.w3.org/2000/svg" viewBox="0 0 62 66"><title>chat</title><path d="M44.85,15.07H16.15A6.157,6.157,0,0,0,10,21.22V38.987a6.157,6.157,0,0,0,6.15,6.15h1.9l-1.2,6.013a.683.683,0,0,0,.988.739l12.834-6.752H44.85A6.157,6.157,0,0,0,51,38.987V21.22A6.157,6.157,0,0,0,44.85,15.07Zm4.783,23.917A4.788,4.788,0,0,1,44.85,43.77H30.5a.678.678,0,0,0-.318.079L18.469,50.014l1.084-5.423a.684.684,0,0,0-.67-.821H16.15a4.788,4.788,0,0,1-4.783-4.783V21.22a4.788,4.788,0,0,1,4.783-4.783h28.7a4.788,4.788,0,0,1,4.783,4.783Z" fill="#55c5d1"/></svg>