<svg xmlns="http://www.w3.org/2000/svg" viewBox="0 0 31.792 42.2"><title>iso</title><path d="M4.371,30.906l8.919,3.318,1.165,10,2.619-8.362,6.25,2.363a3.016,3.016,0,0,0,3.835-1.978L34,14.715l-3.82-1.479,1.188-3.6L13.751,2.473c-2-.767-3.343-.845-4.8,2.07l-6.741,20.9,3.7,1.448Z" transform="translate(-2.208 -2.02)" fill="#56c4cf" fill-rule="evenodd"/><path d="M19.786,21.678a6.9,6.9,0,0,1,3.762,6.94L25.6,28.8a9.443,9.443,0,0,0-3.557-8.384,9.369,9.369,0,0,0,4.9-7.645l-2.048-.179a6.911,6.911,0,0,1-4.446,6.062,3.161,3.161,0,0,1,.126,1.2,3.067,3.067,0,0,1-.787,1.83ZM18.169,17.45a2.086,2.086,0,0,1,1.765,2.342,2.068,2.068,0,0,1-2.13,2,2.084,2.084,0,0,1-1.765-2.341,2.068,2.068,0,0,1,2.13-2Zm-2.408.714a6.994,6.994,0,0,1-3.21-6.653L10.5,11.332a9.445,9.445,0,0,0,3.557,8.384,9.366,9.366,0,0,0-4.9,7.644l2.048.179A6.866,6.866,0,0,1,15.911,21.4a3.079,3.079,0,0,1-.511-2,3.145,3.145,0,0,1,.361-1.232Zm-1.823,13.08-2.009-.176.372-4.426a5.267,5.267,0,0,1,4.137-4.671,2.372,2.372,0,0,0,2.8.166c1.8.628,3.378,2.4,3.361,5.659l-.351,4.174-2-.175.364-4.369a3.1,3.1,0,0,0-2.875-3.27,3.064,3.064,0,0,0-3.451,2.895l-.345,4.193ZM15.86,8.334,15.5,12.526a3.17,3.17,0,0,0,6.3.727l.369-4.368,2,.175-.351,4.174c-.465,2.848-1.972,4.328-3.615,4.842a2.526,2.526,0,0,0-1.976-1.339,2.486,2.486,0,0,0-2.078.869,5.364,5.364,0,0,1-2.67-5.021l.371-4.426Z" transform="translate(-2.208 -2.02)" fill="#fff" fill-rule="evenodd"/></svg>