<svg xmlns="http://www.w3.org/2000/svg" viewBox="0 0 62 66"><title>person</title><path d="M48.923,54.7v5.385a.912.912,0,0,1-1.824,0V54.7a7.582,7.582,0,0,0-7.586-7.586,5.6,5.6,0,0,1-4.816-2.7.912.912,0,0,1,1.558-.949,3.785,3.785,0,0,0,3.258,1.83,9.4,9.4,0,0,1,9.41,9.409ZM31.929,44.868a6.9,6.9,0,0,1-5.382-1.061,5.614,5.614,0,0,0,.477-1.861,12.207,12.207,0,0,0,15.631-11.7c0-7.732.01-7.609-.022-7.926a.912.912,0,1,0-1.814.178c.02.207.013.388.013,7.747a10.37,10.37,0,0,1-20.74,0c0-2.053-.022-3.644-.029-4.836a4.638,4.638,0,0,1,5.742-4.548c4.223,1.013,5.924,3.646,11.337,3.394a.912.912,0,1,0-.086-1.821c-4.879.229-6.231-2.244-10.826-3.346a6.462,6.462,0,0,0-7.991,6.332c.007.969.019,2.031.026,3.339a1.884,1.884,0,0,1-1.022-1.667V22.337c-.046-2.066.248-7.258,3.96-10.836,4.147-4,10.635-4,15.68-2.241l-.729.3a.913.913,0,0,0,.25,1.75l1.6.171a10.537,10.537,0,0,1,7.559,4.438A7.76,7.76,0,0,0,43.8,20.875v6.218a.912.912,0,1,0,1.823,0V20.875a5.954,5.954,0,0,1,1.723-4.2.973.973,0,0,0,.131-1.167,12.305,12.305,0,0,0-7.609-5.545.912.912,0,0,0-.177-1.509,21.6,21.6,0,0,0-10.028-2.14c-9.1.353-14.43,7.15-14.238,16.059v4.726a3.72,3.72,0,0,0,2.858,3.6A12.211,12.211,0,0,0,25.22,41.254v.24a3.8,3.8,0,0,1-3.809,3.8A9.4,9.4,0,0,0,12,54.7v5.385a.912.912,0,1,0,1.823,0V54.7a7.582,7.582,0,0,1,7.587-7.586,5.6,5.6,0,0,0,4.124-1.794,8.731,8.731,0,0,0,6.782,1.327.912.912,0,0,0-.388-1.782Zm7.763,11.46H36.957a.912.912,0,0,0,0,1.823h2.735a.912.912,0,1,0,0-1.823Z" fill="#55c5d1"/></svg>