<svg xmlns="http://www.w3.org/2000/svg" xmlns:xlink="http://www.w3.org/1999/xlink" viewBox="0 0 410 212"><defs><linearGradient id="a" x1="64.6" y1="61" x2="64.6" y2="198.982" gradientUnits="userSpaceOnUse"><stop offset="0" stop-color="#fff"/><stop offset="0.373" stop-color="#fff" stop-opacity="0.993"/><stop offset="0.507" stop-color="#fff" stop-opacity="0.966"/><stop offset="0.603" stop-color="#fff" stop-opacity="0.92"/><stop offset="0.68" stop-color="#fefefe" stop-opacity="0.853"/><stop offset="0.746" stop-color="#fefefe" stop-opacity="0.767"/><stop offset="0.805" stop-color="#fdfdfd" stop-opacity="0.66"/><stop offset="0.858" stop-color="#fcfcfc" stop-opacity="0.533"/><stop offset="0.907" stop-color="#fbfbfb" stop-opacity="0.385"/><stop offset="0.952" stop-color="#fafafa" stop-opacity="0.216"/><stop offset="0.993" stop-color="#f9f9f9" stop-opacity="0.036"/><stop offset="1" stop-color="#f9f9f9" stop-opacity="0"/></linearGradient><linearGradient id="b" x1="345.4" y1="60.754" x2="345.4" y2="197.696" xlink:href="#a"/><linearGradient id="c" x1="205" y1="60.754" x2="205" y2="197.696" xlink:href="#a"/></defs><title>servicios-02</title><rect y="61" width="129.2" height="140" fill="url(#a)"/><rect x="280.8" y="61" width="129.2" height="140" fill="url(#b)"/><path d="M47.219,112.382V92.739H43.2V87.907q4.17,0,5.106-2.806h4.833v27.281Z" fill="#221751"/><path d="M71.225,112.85a9.8,9.8,0,0,1-4.151-.838,8.226,8.226,0,0,1-2.942-2.2,11.519,11.519,0,0,1-1.852-3.235,18.1,18.1,0,0,1-1.012-3.78,26.658,26.658,0,0,1-.293-4.054,24.932,24.932,0,0,1,.506-5.183A16.536,16.536,0,0,1,63.118,89.1a8.243,8.243,0,0,1,3.2-3.274,10.737,10.737,0,0,1,9.861.02,8.232,8.232,0,0,1,3.176,3.293,16.487,16.487,0,0,1,1.6,4.462,25.6,25.6,0,0,1,.488,5.144,24.924,24.924,0,0,1-.507,5.164,16.6,16.6,0,0,1-1.617,4.462,8.276,8.276,0,0,1-3.176,3.275A9.577,9.577,0,0,1,71.225,112.85Zm0-5.613a3.468,3.468,0,0,0,3.332-2.4,15.52,15.52,0,0,0,1.033-6.1,20.937,20.937,0,0,0-.37-4.15,7,7,0,0,0-1.4-3.079,3.21,3.21,0,0,0-2.591-1.267,3.5,3.5,0,0,0-3.352,2.4,15.262,15.262,0,0,0-1.052,6.1,19.639,19.639,0,0,0,.39,4.112,7.444,7.444,0,0,0,1.4,3.1A3.176,3.176,0,0,0,71.225,107.237Z" fill="#221751"/><path d="M38.563,143.069H35.494v-9.512a20.425,20.425,0,0,1,.1-2.149q-.306.919-.819,2.2l-4.347,9.769-4.347-9.819q-.462-1.023-.845-2.149a20.425,20.425,0,0,1,.1,2.149v9.512H22.273v-17.9h3.094l4.6,10.511q.281.715.486,1.33.2-.613.485-1.33l4.629-10.511h2.992Z" fill="#221751"/><path d="M42.91,143.069v-17.9H54.571v2.891H45.979v4.321h5.293v2.89H45.979v4.91h9.155v2.889Z" fill="#221751"/><path d="M65.158,143.376a7.772,7.772,0,0,1-3.541-.779,6.5,6.5,0,0,1-2.468-2.111,9.857,9.857,0,0,1-1.38-2.94,12.38,12.38,0,0,1-.461-3.427,11.876,11.876,0,0,1,.294-2.634,9.992,9.992,0,0,1,.933-2.506,9.04,9.04,0,0,1,1.534-2.11,6.682,6.682,0,0,1,2.212-1.458,7.4,7.4,0,0,1,2.877-.55,6.706,6.706,0,0,1,3.785.959,8.541,8.541,0,0,1,2.481,2.648l-2.736,1.559a4.141,4.141,0,0,0-5.767-1.624,3.914,3.914,0,0,0-1.471,1.535,7.776,7.776,0,0,0-.741,2.007,10.149,10.149,0,0,0-.23,2.174,8.06,8.06,0,0,0,1.176,4.475,3.9,3.9,0,0,0,3.5,1.816,3.37,3.37,0,0,0,2.468-.972,3.216,3.216,0,0,0,.985-2.378v-.282H65.466v-2.889H71.73v2.48a7,7,0,0,1-1.84,5.153A6.379,6.379,0,0,1,65.158,143.376Z" fill="#221751"/><path d="M86.921,143.069l-1.407-3.913H78.431l-1.407,3.913H73.776l6.675-17.9h3.043l6.649,17.9ZM84.542,136.4l-1.969-5.371a13.781,13.781,0,0,1-.588-1.815q-.2.741-.589,1.815L79.4,136.4Z" fill="#221751"/><path d="M98.4,143.376a7.205,7.205,0,0,1-4.232-1.24,6.656,6.656,0,0,1-2.52-3.389L94.49,137.7a4.867,4.867,0,0,0,1.612,2.007,4,4,0,0,0,2.4.755,3.578,3.578,0,0,0,2.238-.64,2.181,2.181,0,0,0,.831-1.841,1.873,1.873,0,0,0-.23-.908,2.86,2.86,0,0,0-.525-.7,3.443,3.443,0,0,0-.881-.562c-.393-.188-.725-.336-1-.448s-.673-.252-1.2-.421c-.682-.24-1.206-.426-1.573-.563a11.086,11.086,0,0,1-1.406-.678,5.149,5.149,0,0,1-1.3-.959,4.669,4.669,0,0,1-1.139-3.069,4.366,4.366,0,0,1,1.586-3.427,7.243,7.243,0,0,1,8.03-.319,5.147,5.147,0,0,1,2,2.774l-2.762.921a3.695,3.695,0,0,0-5.051-1.343,1.657,1.657,0,0,0-.677,1.419,1.464,1.464,0,0,0,.524,1.1,3.688,3.688,0,0,0,1.125.729q.6.245,1.777.626.768.284,1.163.422c.265.095.636.252,1.114.474a9.353,9.353,0,0,1,1.125.6,8.558,8.558,0,0,1,.933.729,3.749,3.749,0,0,1,.805.959,5.83,5.83,0,0,1,.486,1.176,5.047,5.047,0,0,1,.2,1.47,4.819,4.819,0,0,1-1.777,3.952A6.928,6.928,0,0,1,98.4,143.376Z" fill="#221751"/><rect x="140.4" y="61" width="129.2" height="140" fill="url(#c)"/><path d="M189.946,112.382V92.739h-4.014V87.907q4.17,0,5.105-2.806h4.833v27.281Z" fill="#56c4cf"/><path d="M211.653,112.85a13.509,13.509,0,0,1-8.535-2.69l3.079-4.638a10.176,10.176,0,0,0,5.456,1.715,5.1,5.1,0,0,0,3.391-1.051,4.3,4.3,0,0,0,.429-5.554,2.96,2.96,0,0,0-2.378-.955,5.238,5.238,0,0,0-4.053,1.948L203.9,98.937l.585-13.836h15.979v5.69H209.938l-.156,3.858a11.4,11.4,0,0,1,3.352-.585,8.612,8.612,0,0,1,6.684,2.573,9.37,9.37,0,0,1,2.358,6.587,8.882,8.882,0,0,1-2.962,7.014A11.012,11.012,0,0,1,211.653,112.85Z" fill="#56c4cf"/><path d="M180.063,143.069h-3.069v-9.512a20.425,20.425,0,0,1,.1-2.149q-.306.919-.819,2.2l-4.347,9.769-4.347-9.819q-.462-1.023-.845-2.149a20.425,20.425,0,0,1,.1,2.149v9.512h-3.069v-17.9h3.094l4.6,10.511q.28.715.486,1.33.2-.613.485-1.33l4.629-10.511h2.992Z" fill="#56c4cf"/><path d="M184.41,143.069v-17.9h11.661v2.891h-8.592v4.321h5.293v2.89h-5.293v4.91h9.155v2.889Z" fill="#56c4cf"/><path d="M206.658,143.376a7.772,7.772,0,0,1-3.541-.779,6.5,6.5,0,0,1-2.468-2.111,9.857,9.857,0,0,1-1.38-2.94,12.38,12.38,0,0,1-.461-3.427,11.876,11.876,0,0,1,.294-2.634,9.992,9.992,0,0,1,.933-2.506,9.04,9.04,0,0,1,1.534-2.11,6.682,6.682,0,0,1,2.212-1.458,7.4,7.4,0,0,1,2.877-.55,6.706,6.706,0,0,1,3.785.959,8.541,8.541,0,0,1,2.481,2.648l-2.736,1.559a4.141,4.141,0,0,0-5.767-1.624,3.914,3.914,0,0,0-1.471,1.535,7.776,7.776,0,0,0-.741,2.007,10.149,10.149,0,0,0-.23,2.174,8.06,8.06,0,0,0,1.176,4.475,3.9,3.9,0,0,0,3.5,1.816,3.37,3.37,0,0,0,2.468-.972,3.216,3.216,0,0,0,.985-2.378v-.282h-3.145v-2.889h6.264v2.48a7,7,0,0,1-1.84,5.153A6.379,6.379,0,0,1,206.658,143.376Z" fill="#56c4cf"/><path d="M228.421,143.069l-1.407-3.913h-7.083l-1.407,3.913h-3.248l6.675-17.9h3.043l6.649,17.9Zm-2.379-6.674-1.969-5.371a13.781,13.781,0,0,1-.588-1.815q-.2.741-.589,1.815L220.9,136.4Z" fill="#56c4cf"/><path d="M239.9,143.376a7.205,7.205,0,0,1-4.232-1.24,6.656,6.656,0,0,1-2.52-3.389l2.839-1.048a4.867,4.867,0,0,0,1.612,2.007,4,4,0,0,0,2.4.755,3.578,3.578,0,0,0,2.238-.64,2.181,2.181,0,0,0,.831-1.841,1.873,1.873,0,0,0-.23-.908,2.86,2.86,0,0,0-.525-.7,3.443,3.443,0,0,0-.881-.562c-.393-.188-.725-.336-1-.448s-.673-.252-1.2-.421c-.682-.24-1.206-.426-1.573-.563a11.086,11.086,0,0,1-1.406-.678,5.149,5.149,0,0,1-1.3-.959,4.669,4.669,0,0,1-1.139-3.069,4.366,4.366,0,0,1,1.586-3.427,7.243,7.243,0,0,1,8.03-.319,5.147,5.147,0,0,1,2,2.774l-2.762.921a3.695,3.695,0,0,0-5.051-1.343,1.657,1.657,0,0,0-.677,1.419,1.464,1.464,0,0,0,.524,1.1,3.688,3.688,0,0,0,1.125.729q.6.245,1.777.626.768.284,1.163.422c.265.095.636.252,1.114.474a9.353,9.353,0,0,1,1.125.6,8.558,8.558,0,0,1,.933.729,3.749,3.749,0,0,1,.8.959,5.83,5.83,0,0,1,.486,1.176,5.047,5.047,0,0,1,.2,1.47,4.819,4.819,0,0,1-1.777,3.952A6.928,6.928,0,0,1,239.9,143.376Z" fill="#56c4cf"/><path d="M323.573,112.382a18.287,18.287,0,0,1,1.286-7.093,14.485,14.485,0,0,1,3.236-4.95,23.118,23.118,0,0,1,4.832-3.468,11.445,11.445,0,0,0,2.592-1.793,2.9,2.9,0,0,0,.916-2.143q0-2.69-2.884-2.69a4.578,4.578,0,0,0-4.248,2.729L324,90.6a9.791,9.791,0,0,1,3.8-4.365,10.269,10.269,0,0,1,5.553-1.6,9.035,9.035,0,0,1,6.529,2.3,7.662,7.662,0,0,1,2.4,5.767,8.242,8.242,0,0,1-1.422,5.106,14.349,14.349,0,0,1-4.345,3.547,32.384,32.384,0,0,0-4.092,2.786,7.213,7.213,0,0,0-1.91,2.552h12v5.691Z" fill="#be1d7b"/><path d="M358.025,112.85a9.8,9.8,0,0,1-4.15-.838,8.226,8.226,0,0,1-2.942-2.2,11.519,11.519,0,0,1-1.852-3.235,18.169,18.169,0,0,1-1.013-3.78,26.787,26.787,0,0,1-.293-4.054,24.862,24.862,0,0,1,.507-5.183,16.536,16.536,0,0,1,1.637-4.462,8.236,8.236,0,0,1,3.2-3.274,10.737,10.737,0,0,1,9.861.02,8.223,8.223,0,0,1,3.175,3.293,16.456,16.456,0,0,1,1.6,4.462,25.606,25.606,0,0,1,.487,5.144,24.924,24.924,0,0,1-.507,5.164,16.534,16.534,0,0,1-1.617,4.462,8.274,8.274,0,0,1-3.175,3.275A9.578,9.578,0,0,1,358.025,112.85Zm0-5.613a3.466,3.466,0,0,0,3.332-2.4,15.5,15.5,0,0,0,1.034-6.1,20.937,20.937,0,0,0-.37-4.15,7.008,7.008,0,0,0-1.4-3.079,3.211,3.211,0,0,0-2.592-1.267,3.5,3.5,0,0,0-3.351,2.4,15.262,15.262,0,0,0-1.052,6.1,19.639,19.639,0,0,0,.39,4.112,7.432,7.432,0,0,0,1.4,3.1A3.175,3.175,0,0,0,358.025,107.237Z" fill="#be1d7b"/><path d="M321.563,143.069h-3.069v-9.512a20.425,20.425,0,0,1,.1-2.149q-.306.919-.819,2.2l-4.347,9.769-4.347-9.819q-.462-1.023-.845-2.149a20.425,20.425,0,0,1,.1,2.149v9.512h-3.069v-17.9h3.094l4.6,10.511q.281.715.486,1.33.2-.613.485-1.33l4.629-10.511h2.992Z" fill="#be1d7b"/><path d="M325.91,143.069v-17.9h11.661v2.891h-8.592v4.321h5.293v2.89h-5.293v4.91h9.155v2.889Z" fill="#be1d7b"/><path d="M348.158,143.376a7.772,7.772,0,0,1-3.541-.779,6.5,6.5,0,0,1-2.468-2.111,9.857,9.857,0,0,1-1.38-2.94,12.38,12.38,0,0,1-.461-3.427,11.876,11.876,0,0,1,.294-2.634,9.992,9.992,0,0,1,.933-2.506,9.04,9.04,0,0,1,1.534-2.11,6.682,6.682,0,0,1,2.212-1.458,7.4,7.4,0,0,1,2.877-.55,6.706,6.706,0,0,1,3.785.959,8.541,8.541,0,0,1,2.481,2.648l-2.736,1.559a4.141,4.141,0,0,0-5.767-1.624,3.914,3.914,0,0,0-1.471,1.535,7.776,7.776,0,0,0-.741,2.007,10.149,10.149,0,0,0-.23,2.174,8.06,8.06,0,0,0,1.176,4.475,3.9,3.9,0,0,0,3.5,1.816,3.37,3.37,0,0,0,2.468-.972,3.216,3.216,0,0,0,.985-2.378v-.282h-3.145v-2.889h6.264v2.48a7,7,0,0,1-1.84,5.153A6.379,6.379,0,0,1,348.158,143.376Z" fill="#be1d7b"/><path d="M369.921,143.069l-1.407-3.913h-7.083l-1.407,3.913h-3.248l6.675-17.9h3.043l6.649,17.9Zm-2.379-6.674-1.969-5.371a13.781,13.781,0,0,1-.588-1.815q-.2.741-.589,1.815L362.4,136.4Z" fill="#be1d7b"/><path d="M381.4,143.376a7.205,7.205,0,0,1-4.232-1.24,6.656,6.656,0,0,1-2.52-3.389l2.839-1.048a4.867,4.867,0,0,0,1.612,2.007,4,4,0,0,0,2.4.755,3.578,3.578,0,0,0,2.238-.64,2.181,2.181,0,0,0,.831-1.841,1.873,1.873,0,0,0-.23-.908,2.86,2.86,0,0,0-.525-.7,3.443,3.443,0,0,0-.881-.562c-.393-.188-.725-.336-1-.448s-.673-.252-1.2-.421c-.682-.24-1.206-.426-1.573-.563a11.086,11.086,0,0,1-1.406-.678,5.149,5.149,0,0,1-1.3-.959,4.669,4.669,0,0,1-1.139-3.069,4.366,4.366,0,0,1,1.586-3.427,7.243,7.243,0,0,1,8.03-.319,5.147,5.147,0,0,1,2,2.774l-2.762.921a3.695,3.695,0,0,0-5.051-1.343,1.657,1.657,0,0,0-.677,1.419,1.464,1.464,0,0,0,.524,1.1,3.688,3.688,0,0,0,1.125.729q.6.245,1.777.626.768.284,1.163.422c.265.095.636.252,1.114.474a9.353,9.353,0,0,1,1.125.6,8.558,8.558,0,0,1,.933.729,3.749,3.749,0,0,1,.805.959,5.83,5.83,0,0,1,.486,1.176,5.047,5.047,0,0,1,.205,1.47,4.819,4.819,0,0,1-1.777,3.952A6.928,6.928,0,0,1,381.4,143.376Z" fill="#be1d7b"/><path d="M125.38,29.9h-3.5V21.917c0-.152.008-.321.022-.506q-.114.277-.206.46l-3.91,8.3-3.956-8.258c-.046-.106-.107-.275-.185-.506V29.9h-3.5V13.8h3.566l3.749,8.211c.107.245.237.583.39,1.011.154-.428.285-.766.392-1.011l3.863-8.211h3.267Z" fill="#be1d7b"/><path d="M139.687,29.9l-1.2-3.127h-6.049l-1.2,3.127h-3.818l6.348-16.1h3.358L143.5,29.9ZM132.234,12.3,135.5,8.716h3.979L135.385,12.3Zm5.083,11.247-1.379-3.474a12.545,12.545,0,0,1-.484-1.356,11.269,11.269,0,0,1-.482,1.356l-1.381,3.474Z" fill="#be1d7b"/><path d="M150.564,30.175a6.586,6.586,0,0,1-4.036-1.254,6.882,6.882,0,0,1-2.426-3.462l3.127-1.173a5.082,5.082,0,0,0,1.45,1.875,3.134,3.134,0,0,0,1.978.7,3.184,3.184,0,0,0,1.771-.425,1.387,1.387,0,0,0,.644-1.231,1.232,1.232,0,0,0-.471-.942,3.222,3.222,0,0,0-.99-.61c-.344-.131-.878-.31-1.6-.541q-.714-.229-1.07-.356t-1.023-.4a6.064,6.064,0,0,1-1.012-.5q-.345-.231-.828-.621a2.962,2.962,0,0,1-.725-.817,5.114,5.114,0,0,1-.425-1.035,4.465,4.465,0,0,1-.184-1.3,4.118,4.118,0,0,1,1.518-3.243,6.083,6.083,0,0,1,4.117-1.311,5.806,5.806,0,0,1,3.634,1.127,5.336,5.336,0,0,1,1.955,2.9l-3.128,1.012a2.677,2.677,0,0,0-2.645-1.726q-1.954,0-1.955,1.312a.823.823,0,0,0,.184.529,1.928,1.928,0,0,0,.667.46q.483.229.794.344c.207.078.57.208,1.092.391.552.185.977.33,1.277.438s.709.272,1.23.494a4.887,4.887,0,0,1,1.231.713,10.028,10.028,0,0,1,.93.909,3.212,3.212,0,0,1,.7,1.241,5.346,5.346,0,0,1,.218,1.564,4.35,4.35,0,0,1-1.7,3.612A6.769,6.769,0,0,1,150.564,30.175Z" fill="#be1d7b"/><path d="M168.965,29.9l-5.8-16.1h3.795l3.473,10.142a3.267,3.267,0,0,1,.138.438l.069.253c.03-.139.1-.368.207-.691L174.324,13.8h3.748L172.3,29.9Z" fill="#be1d7b"/><path d="M179.729,29.9V13.8H191.3V17.11h-8.073v2.829h4.507v3.312h-4.507v3.312h8.533V29.9Z" fill="#be1d7b"/><path d="M194.379,29.9V13.8h3.5V26.518H205.6V29.9Z" fill="#be1d7b"/><path d="M213.722,30.175a7.442,7.442,0,0,1-2.748-.484,5.762,5.762,0,0,1-2.036-1.3,7.314,7.314,0,0,1-1.345-1.9,9.148,9.148,0,0,1-.782-2.242,12.057,12.057,0,0,1,0-4.807,9.17,9.17,0,0,1,.782-2.243,7.343,7.343,0,0,1,1.345-1.9,5.762,5.762,0,0,1,2.036-1.3,7.462,7.462,0,0,1,2.748-.484,7.166,7.166,0,0,1,3.289.725,5.661,5.661,0,0,1,2.231,1.955,9.583,9.583,0,0,1,1.207,2.656,11.3,11.3,0,0,1,0,5.981,9.583,9.583,0,0,1-1.207,2.656,5.669,5.669,0,0,1-2.231,1.955A7.166,7.166,0,0,1,213.722,30.175Zm0-3.382a2.775,2.775,0,0,0,2.024-.816,4.4,4.4,0,0,0,1.15-1.886,7.756,7.756,0,0,0,.322-2.242,8.574,8.574,0,0,0-.3-2.312,4.052,4.052,0,0,0-1.127-1.863,3.08,3.08,0,0,0-4.151.023,4.147,4.147,0,0,0-1.139,1.886,8.4,8.4,0,0,0-.3,2.266,7.907,7.907,0,0,0,.184,1.724,6.375,6.375,0,0,0,.575,1.576,3.077,3.077,0,0,0,1.1,1.2A3.042,3.042,0,0,0,213.722,26.793Z" fill="#be1d7b"/><path d="M229.913,30.129a6.708,6.708,0,0,1-3.185-.725A5.43,5.43,0,0,1,224.6,27.46a9.256,9.256,0,0,1-1.116-2.621,12.1,12.1,0,0,1-.356-2.99,11.083,11.083,0,0,1,.367-2.841,10.029,10.029,0,0,1,1.127-2.645,5.7,5.7,0,0,1,2.128-2.024,6.333,6.333,0,0,1,3.162-.771A6.145,6.145,0,0,1,233.64,14.7a6.233,6.233,0,0,1,2.184,2.738l-3.128,1.4a6.043,6.043,0,0,0-1.276-1.448,2.426,2.426,0,0,0-1.507-.46,2.547,2.547,0,0,0-1.494.448,2.9,2.9,0,0,0-.989,1.2,6.793,6.793,0,0,0-.506,1.564,8.793,8.793,0,0,0-.161,1.714,8.287,8.287,0,0,0,.31,2.3A4.333,4.333,0,0,0,228.131,26a2.4,2.4,0,0,0,1.782.771q1.5,0,2.737-2.071l3.2,1.2Q233.892,30.129,229.913,30.129Z" fill="#be1d7b"/><path d="M238.424,29.9V13.8h3.5V29.9Z" fill="#be1d7b"/><path d="M245.461,13.8H251.4a8.93,8.93,0,0,1,3.587.678,6.2,6.2,0,0,1,2.473,1.84,8.139,8.139,0,0,1,1.356,2.565,9.648,9.648,0,0,1,.45,2.967,9.943,9.943,0,0,1-.253,2.242,8.238,8.238,0,0,1-.852,2.162,7.045,7.045,0,0,1-1.5,1.863,6.915,6.915,0,0,1-2.276,1.288,9.112,9.112,0,0,1-3.082.494h-5.843Zm6.21,12.764a3.383,3.383,0,0,0,2.968-1.414,5.617,5.617,0,0,0,.988-3.3,5.821,5.821,0,0,0-.954-3.313,3.11,3.11,0,0,0-2.748-1.426h-2.968v9.453Z" fill="#be1d7b"/><path d="M272.234,29.9l-1.2-3.127h-6.049l-1.2,3.127h-3.818l6.348-16.1h3.358l6.371,16.1Zm-2.369-6.347-1.38-3.474A12.515,12.515,0,0,1,268,18.721a11.455,11.455,0,0,1-.482,1.356l-1.381,3.474Z" fill="#be1d7b"/><path d="M278.1,13.8h5.934a8.932,8.932,0,0,1,3.588.678,6.212,6.212,0,0,1,2.473,1.84,8.18,8.18,0,0,1,1.356,2.565,9.648,9.648,0,0,1,.449,2.967,9.943,9.943,0,0,1-.253,2.242,8.235,8.235,0,0,1-.851,2.162,7.085,7.085,0,0,1-1.5,1.863,6.92,6.92,0,0,1-2.277,1.288,9.107,9.107,0,0,1-3.082.494H278.1Zm6.21,12.764a3.381,3.381,0,0,0,2.967-1.414,5.611,5.611,0,0,0,.989-3.3,5.828,5.828,0,0,0-.954-3.313,3.11,3.11,0,0,0-2.749-1.426H281.6v9.453Z" fill="#be1d7b"/><path d="M298.144,29.554a2.132,2.132,0,0,1-1.552.621,2.037,2.037,0,0,1-1.519-.611,2.065,2.065,0,0,1-.6-1.5,2.109,2.109,0,0,1,.6-1.519,2.018,2.018,0,0,1,1.519-.62,2.132,2.132,0,0,1,1.552.62,2.049,2.049,0,0,1,.632,1.519A2.021,2.021,0,0,1,298.144,29.554Zm-2.565-4.095-.643-6.692V13.522h3.335v5.245l-.645,6.692Z" fill="#be1d7b"/></svg>