<svg xmlns="http://www.w3.org/2000/svg" viewBox="0 0 410 212"><title>servicios</title><rect y="68" width="410" height="38" fill="#fff"/><rect y="113" width="410" height="38" fill="#fff"/><rect y="158" width="410" height="38" fill="#fff"/><path d="M40.46,94.017v-11.2h4.655a3.662,3.662,0,0,1,2.849,1.008,3.682,3.682,0,0,1-.04,4.9,3.589,3.589,0,0,1-2.809,1.055H42.38v4.241Zm4.752-6.065a1.56,1.56,0,0,0,1.264-.5,1.765,1.765,0,0,0,.416-1.168,1.813,1.813,0,0,0-.392-1.144,1.534,1.534,0,0,0-1.288-.5H42.38v3.311Z" fill="#221751"/><path d="M50.636,94.017v-11.2h7.3v1.809H52.556v2.7h3.311v1.809H52.556v3.072h5.727v1.808Z" fill="#221751"/><path d="M60.443,94.017v-11.2H65.4a3.632,3.632,0,0,1,2.808.96,3.709,3.709,0,0,1,.28,4.4,3,3,0,0,1-1.712,1.248l2.24,4.592h-2.16L64.7,89.633H62.363v4.384Zm1.92-6.208h3.072A1.612,1.612,0,0,0,66.7,87.36a1.636,1.636,0,0,0,.4-1.135,1.688,1.688,0,0,0-.384-1.128,1.59,1.59,0,0,0-1.28-.456H62.363Z" fill="#221751"/><path d="M74.907,94.209a4.511,4.511,0,0,1-2.648-.776,4.17,4.17,0,0,1-1.576-2.121l1.776-.656a3.039,3.039,0,0,0,1.008,1.257,2.505,2.505,0,0,0,1.5.472,2.237,2.237,0,0,0,1.4-.4,1.363,1.363,0,0,0,.52-1.151,1.164,1.164,0,0,0-.144-.568,1.822,1.822,0,0,0-.328-.441,2.161,2.161,0,0,0-.552-.351c-.246-.118-.454-.211-.624-.281s-.422-.157-.752-.263q-.641-.225-.984-.353a6.589,6.589,0,0,1-.88-.424,3.234,3.234,0,0,1-.816-.6,2.909,2.909,0,0,1-.712-1.92,2.732,2.732,0,0,1,.992-2.145,3.955,3.955,0,0,1,2.688-.863,3.912,3.912,0,0,1,2.336.664,3.223,3.223,0,0,1,1.248,1.735l-1.728.577a2.309,2.309,0,0,0-3.16-.84,1.035,1.035,0,0,0-.424.887.92.92,0,0,0,.328.689,2.332,2.332,0,0,0,.7.456c.25.1.621.231,1.112.392q.48.175.728.263c.165.06.4.158.7.3a6.119,6.119,0,0,1,.7.376,5.661,5.661,0,0,1,.584.456,2.388,2.388,0,0,1,.5.6,3.69,3.69,0,0,1,.3.736,3.177,3.177,0,0,1,.128.92,3.014,3.014,0,0,1-1.113,2.472A4.333,4.333,0,0,1,74.907,94.209Z" fill="#221751"/><path d="M85.6,94.209a5.078,5.078,0,0,1-1.888-.336,3.958,3.958,0,0,1-1.4-.9,5.2,5.2,0,0,1-.928-1.321,6.1,6.1,0,0,1-.536-1.559,8.821,8.821,0,0,1,0-3.345,6.115,6.115,0,0,1,.536-1.559,5.217,5.217,0,0,1,.928-1.321,3.956,3.956,0,0,1,1.4-.9,5.058,5.058,0,0,1,1.888-.336,4.935,4.935,0,0,1,2.28.5,3.9,3.9,0,0,1,1.536,1.359,6.663,6.663,0,0,1,.823,1.849,8.06,8.06,0,0,1,0,4.16,6.644,6.644,0,0,1-.823,1.848,3.913,3.913,0,0,1-1.536,1.36A4.935,4.935,0,0,1,85.6,94.209Zm0-1.841A2.528,2.528,0,0,0,86.955,92a2.583,2.583,0,0,0,.92-.969,5.114,5.114,0,0,0,.487-1.263,5.74,5.74,0,0,0,.16-1.352,5.935,5.935,0,0,0-.16-1.4,4.975,4.975,0,0,0-.487-1.256,2.514,2.514,0,0,0-.912-.945,2.608,2.608,0,0,0-1.368-.351,2.4,2.4,0,0,0-1.712.647,3.433,3.433,0,0,0-.952,1.5,6.261,6.261,0,0,0-.105,3.2,5.029,5.029,0,0,0,.488,1.263,2.5,2.5,0,0,0,.913.945A2.6,2.6,0,0,0,85.6,92.368Z" fill="#221751"/><path d="M101.531,94.017H99.787l-4.641-7.073a7.008,7.008,0,0,1-.463-.832,6.743,6.743,0,0,1,.047.832v7.073h-1.9v-11.2h1.856l4.528,6.96a9.389,9.389,0,0,1,.464.849,7.685,7.685,0,0,1-.048-.849v-6.96h1.9Z" fill="#221751"/><path d="M111.467,94.017l-.881-2.449h-4.432l-.88,2.449h-2.032l4.176-11.2h1.9l4.16,11.2Zm-1.488-4.176-1.233-3.361a8.822,8.822,0,0,1-.368-1.135q-.127.463-.367,1.135l-1.248,3.361Z" fill="#221751"/><path d="M115.2,94.017v-11.2h1.92v9.361h5.44v1.84Z" fill="#221751"/><path d="M132.443,94.209a4.749,4.749,0,0,1-1.824-.336,3.733,3.733,0,0,1-1.336-.9,5.01,5.01,0,0,1-.872-1.329,6.75,6.75,0,0,1-.5-1.567,8.94,8.94,0,0,1-.152-1.664,7.83,7.83,0,0,1,.256-2,6.982,6.982,0,0,1,.784-1.849,3.988,3.988,0,0,1,1.472-1.408,4.341,4.341,0,0,1,2.176-.535,4.283,4.283,0,0,1,2.495.695,3.76,3.76,0,0,1,1.409,1.689l-1.728.784a3.409,3.409,0,0,0-.936-1.009,2.224,2.224,0,0,0-1.24-.319,2.309,2.309,0,0,0-1.288.359,2.387,2.387,0,0,0-.848.96,5.208,5.208,0,0,0-.432,1.265,6.767,6.767,0,0,0-.136,1.368,5.332,5.332,0,0,0,.7,2.752,2.2,2.2,0,0,0,2.008,1.184,2.5,2.5,0,0,0,2.144-1.44l1.776.672A4.017,4.017,0,0,1,132.443,94.209Z" fill="#221751"/><path d="M145.643,94.017l-.881-2.449H140.33l-.88,2.449h-2.032l4.176-11.2h1.9l4.16,11.2Zm-1.489-4.176-1.232-3.361a8.822,8.822,0,0,1-.368-1.135q-.128.463-.367,1.135l-1.249,3.361Z" fill="#221751"/><path d="M149.37,94.017v-11.2h4.655a3.661,3.661,0,0,1,2.849,1.008,3.682,3.682,0,0,1-.04,4.9,3.589,3.589,0,0,1-2.809,1.055H151.29v4.241Zm4.752-6.065a1.558,1.558,0,0,0,1.264-.5,1.765,1.765,0,0,0,.416-1.168,1.813,1.813,0,0,0-.392-1.144,1.534,1.534,0,0,0-1.288-.5H151.29v3.311Z" fill="#221751"/><path d="M165.4,94.017l-.881-2.449H160.09l-.88,2.449h-2.032l4.176-11.2h1.9l4.16,11.2Zm-1.488-4.176-1.232-3.361a8.682,8.682,0,0,1-.369-1.135c-.084.309-.208.687-.367,1.135L160.7,89.841Z" fill="#221751"/><path d="M172.971,94.209a4.751,4.751,0,0,1-1.825-.336,3.729,3.729,0,0,1-1.335-.9,4.988,4.988,0,0,1-.873-1.329,6.7,6.7,0,0,1-.5-1.567,8.855,8.855,0,0,1-.153-1.664,7.83,7.83,0,0,1,.256-2,7.015,7.015,0,0,1,.784-1.849,4,4,0,0,1,1.472-1.408,4.345,4.345,0,0,1,2.177-.535,4.287,4.287,0,0,1,2.5.695,3.757,3.757,0,0,1,1.408,1.689l-1.728.784a3.4,3.4,0,0,0-.936-1.009,2.218,2.218,0,0,0-1.239-.319,2.306,2.306,0,0,0-1.288.359,2.382,2.382,0,0,0-.849.96,5.251,5.251,0,0,0-.432,1.265,6.84,6.84,0,0,0-.135,1.368,5.332,5.332,0,0,0,.695,2.752,2.207,2.207,0,0,0,2.009,1.184,2.5,2.5,0,0,0,2.143-1.44l1.777.672A4.018,4.018,0,0,1,172.971,94.209Z" fill="#221751"/><path d="M179.082,94.017v-11.2H181v11.2Z" fill="#221751"/><path d="M188.186,84.656v9.361h-1.92V84.656h-3.185v-1.84h8.288v1.84Z" fill="#221751"/><path d="M199.307,94.017l-.881-2.449h-4.432l-.88,2.449h-2.032l4.176-11.2h1.9l4.16,11.2Zm-1.489-4.176-1.232-3.361a8.822,8.822,0,0,1-.368-1.135q-.127.463-.367,1.135L194.6,89.841Z" fill="#221751"/><path d="M203.034,82.816h3.456a6.308,6.308,0,0,1,2.064.321,4.378,4.378,0,0,1,2.551,2.1,5.76,5.76,0,0,1,.593,1.521,7.469,7.469,0,0,1,.016,3.223,5.643,5.643,0,0,1-.576,1.513,4.973,4.973,0,0,1-1.016,1.3,4.553,4.553,0,0,1-1.56.888,6.417,6.417,0,0,1-2.136.336h-3.392Zm3.664,9.393a3.2,3.2,0,0,0,1.5-.336,2.557,2.557,0,0,0,1.009-.9,4.267,4.267,0,0,0,.527-1.208,5.232,5.232,0,0,0,.168-1.344,4.6,4.6,0,0,0-.767-2.681,2.566,2.566,0,0,0-2.256-1.111h-1.92v7.584Z" fill="#221751"/><path d="M218.714,94.209a5.085,5.085,0,0,1-1.888-.336,3.958,3.958,0,0,1-1.4-.9,5.224,5.224,0,0,1-.928-1.321,6.1,6.1,0,0,1-.536-1.559,8.821,8.821,0,0,1,0-3.345,6.115,6.115,0,0,1,.536-1.559,5.242,5.242,0,0,1,.928-1.321,3.956,3.956,0,0,1,1.4-.9,5.065,5.065,0,0,1,1.888-.336,4.935,4.935,0,0,1,2.28.5,3.9,3.9,0,0,1,1.536,1.359,6.7,6.7,0,0,1,.824,1.849,8.089,8.089,0,0,1,0,4.16,6.676,6.676,0,0,1-.824,1.848,3.913,3.913,0,0,1-1.536,1.36A4.935,4.935,0,0,1,218.714,94.209Zm0-1.841a2.526,2.526,0,0,0,1.36-.367,2.583,2.583,0,0,0,.92-.969,5.114,5.114,0,0,0,.487-1.263,5.741,5.741,0,0,0,.161-1.352,5.935,5.935,0,0,0-.161-1.4,4.975,4.975,0,0,0-.487-1.256,2.514,2.514,0,0,0-.912-.945,2.608,2.608,0,0,0-1.368-.351,2.4,2.4,0,0,0-1.712.647,3.442,3.442,0,0,0-.952,1.5,6.261,6.261,0,0,0-.105,3.2,4.993,4.993,0,0,0,.489,1.263,2.485,2.485,0,0,0,.912.945A2.6,2.6,0,0,0,218.714,92.368Z" fill="#221751"/><path d="M40.46,126.816h3.456a6.3,6.3,0,0,1,2.063.321,4.376,4.376,0,0,1,2.552,2.1,5.76,5.76,0,0,1,.593,1.521,7.469,7.469,0,0,1,.016,3.223,5.646,5.646,0,0,1-.577,1.513,4.949,4.949,0,0,1-1.015,1.3,4.549,4.549,0,0,1-1.561.888,6.406,6.406,0,0,1-2.135.336H40.46Zm3.664,9.393a3.2,3.2,0,0,0,1.495-.336,2.557,2.557,0,0,0,1.009-.9,4.267,4.267,0,0,0,.527-1.208,5.232,5.232,0,0,0,.168-1.344,4.611,4.611,0,0,0-.767-2.681,2.566,2.566,0,0,0-2.256-1.111H42.38v7.584Z" fill="#221751"/><path d="M51.708,138.017v-11.2h1.92v11.2Z" fill="#221751"/><path d="M63.644,138.017l-.881-2.449H58.331l-.88,2.449H55.419l4.176-11.2h1.9l4.16,11.2Zm-1.489-4.176-1.232-3.361a8.822,8.822,0,0,1-.368-1.135q-.128.463-.367,1.135l-1.249,3.361Z" fill="#221751"/><path d="M71.436,138.209a4.857,4.857,0,0,1-2.216-.488,4.052,4.052,0,0,1-1.544-1.321,6.173,6.173,0,0,1-.864-1.839,7.734,7.734,0,0,1-.289-2.144,7.5,7.5,0,0,1,.184-1.648,6.273,6.273,0,0,1,.584-1.569,5.636,5.636,0,0,1,.961-1.319,4.151,4.151,0,0,1,1.384-.912,4.612,4.612,0,0,1,1.8-.344,4.183,4.183,0,0,1,2.368.6,5.352,5.352,0,0,1,1.551,1.656l-1.711.975a2.589,2.589,0,0,0-3.609-1.015,2.452,2.452,0,0,0-.92.96,4.871,4.871,0,0,0-.464,1.256,6.383,6.383,0,0,0-.143,1.36,5.052,5.052,0,0,0,.735,2.8,2.443,2.443,0,0,0,2.193,1.136,2.106,2.106,0,0,0,1.543-.609,2.007,2.007,0,0,0,.617-1.487v-.176H71.628v-1.809h3.92v1.552a4.383,4.383,0,0,1-1.152,3.225A3.994,3.994,0,0,1,71.436,138.209Z" fill="#221751"/><path d="M86.539,138.017H84.8l-4.641-7.073a7.145,7.145,0,0,1-.464-.832,6.545,6.545,0,0,1,.048.832v7.073h-1.9v-11.2H79.69l4.529,6.96a9.653,9.653,0,0,1,.464.849,7.449,7.449,0,0,1-.048-.849v-6.96h1.9Z" fill="#221751"/><path d="M93.771,138.209a5.078,5.078,0,0,1-1.888-.336,3.962,3.962,0,0,1-1.4-.9,5.221,5.221,0,0,1-.927-1.321,6.1,6.1,0,0,1-.536-1.559,8.768,8.768,0,0,1,0-3.345,6.115,6.115,0,0,1,.536-1.559,5.239,5.239,0,0,1,.927-1.321,3.96,3.96,0,0,1,1.4-.9,5.058,5.058,0,0,1,1.888-.336,4.935,4.935,0,0,1,2.28.5,3.9,3.9,0,0,1,1.536,1.359,6.663,6.663,0,0,1,.823,1.849,8.06,8.06,0,0,1,0,4.16,6.644,6.644,0,0,1-.823,1.848,3.913,3.913,0,0,1-1.536,1.36A4.935,4.935,0,0,1,93.771,138.209Zm0-1.841a2.53,2.53,0,0,0,1.36-.367,2.591,2.591,0,0,0,.92-.969,5.114,5.114,0,0,0,.487-1.263,5.74,5.74,0,0,0,.16-1.352,5.935,5.935,0,0,0-.16-1.4,4.975,4.975,0,0,0-.487-1.256,2.521,2.521,0,0,0-.912-.945,2.608,2.608,0,0,0-1.368-.351,2.4,2.4,0,0,0-1.712.647,3.444,3.444,0,0,0-.953,1.5,6.274,6.274,0,0,0-.1,3.2,4.954,4.954,0,0,0,.488,1.263,2.5,2.5,0,0,0,.912.945A2.609,2.609,0,0,0,93.771,136.368ZM91.69,125.776l2.273-2.5H96.4l-2.848,2.5Z" fill="#221751"/><path d="M104.587,138.209a4.515,4.515,0,0,1-2.649-.776,4.176,4.176,0,0,1-1.576-2.121l1.777-.656a3.044,3.044,0,0,0,1.007,1.257,2.509,2.509,0,0,0,1.5.472,2.24,2.24,0,0,0,1.4-.4,1.365,1.365,0,0,0,.519-1.151,1.174,1.174,0,0,0-.143-.568,1.822,1.822,0,0,0-.328-.441,2.161,2.161,0,0,0-.552-.351c-.246-.118-.454-.211-.624-.281s-.422-.157-.752-.263q-.641-.225-.984-.353a6.589,6.589,0,0,1-.88-.424,3.241,3.241,0,0,1-.817-.6,2.849,2.849,0,0,1-.5-.809,2.808,2.808,0,0,1-.216-1.111,2.73,2.73,0,0,1,.993-2.145,3.955,3.955,0,0,1,2.688-.863,3.914,3.914,0,0,1,2.336.664,3.223,3.223,0,0,1,1.248,1.735l-1.729.577a2.309,2.309,0,0,0-3.16-.84,1.038,1.038,0,0,0-.424.887.921.921,0,0,0,.329.689,2.32,2.32,0,0,0,.7.456c.25.1.621.231,1.112.392.319.117.563.2.728.263s.4.158.7.3a6.119,6.119,0,0,1,.7.376,5.661,5.661,0,0,1,.584.456,2.388,2.388,0,0,1,.5.6,3.69,3.69,0,0,1,.3.736,3.212,3.212,0,0,1,.127.92,3.016,3.016,0,0,1-1.112,2.472A4.333,4.333,0,0,1,104.587,138.209Z" fill="#221751"/><path d="M115.146,128.656v9.361h-1.919v-9.361h-3.185v-1.84h8.288v1.84Z" fill="#221751"/><path d="M120.411,138.017v-11.2h1.92v11.2Z" fill="#221751"/><path d="M129.419,138.209a4.746,4.746,0,0,1-1.824-.336,3.724,3.724,0,0,1-1.336-.9,4.962,4.962,0,0,1-.872-1.329,6.656,6.656,0,0,1-.5-1.567,8.855,8.855,0,0,1-.153-1.664,7.83,7.83,0,0,1,.256-2,6.985,6.985,0,0,1,.785-1.849,3.985,3.985,0,0,1,1.471-1.408,4.347,4.347,0,0,1,2.177-.535,4.287,4.287,0,0,1,2.495.695,3.751,3.751,0,0,1,1.408,1.689l-1.727.784a3.411,3.411,0,0,0-.937-1.009,2.218,2.218,0,0,0-1.239-.319,2.309,2.309,0,0,0-1.288.359,2.389,2.389,0,0,0-.849.96,5.206,5.206,0,0,0-.431,1.265,6.767,6.767,0,0,0-.136,1.368,5.332,5.332,0,0,0,.695,2.752,2.207,2.207,0,0,0,2.009,1.184,2.5,2.5,0,0,0,2.143-1.44l1.777.672A4.017,4.017,0,0,1,129.419,138.209Z" fill="#221751"/><path d="M139.8,138.209a5.081,5.081,0,0,1-1.888-.336,3.958,3.958,0,0,1-1.4-.9,5.224,5.224,0,0,1-.928-1.321,6.1,6.1,0,0,1-.536-1.559,8.821,8.821,0,0,1,0-3.345,6.115,6.115,0,0,1,.536-1.559,5.242,5.242,0,0,1,.928-1.321,3.956,3.956,0,0,1,1.4-.9,5.061,5.061,0,0,1,1.888-.336,4.935,4.935,0,0,1,2.28.5,3.9,3.9,0,0,1,1.536,1.359,6.663,6.663,0,0,1,.823,1.849,8.06,8.06,0,0,1,0,4.16,6.644,6.644,0,0,1-.823,1.848,3.913,3.913,0,0,1-1.536,1.36A4.935,4.935,0,0,1,139.8,138.209Zm0-1.841a2.528,2.528,0,0,0,1.36-.367,2.583,2.583,0,0,0,.92-.969,5.114,5.114,0,0,0,.487-1.263,5.74,5.74,0,0,0,.16-1.352,5.935,5.935,0,0,0-.16-1.4,4.975,4.975,0,0,0-.487-1.256,2.514,2.514,0,0,0-.912-.945,2.608,2.608,0,0,0-1.368-.351,2.4,2.4,0,0,0-1.712.647,3.433,3.433,0,0,0-.952,1.5,6.261,6.261,0,0,0-.105,3.2,5.029,5.029,0,0,0,.488,1.263,2.5,2.5,0,0,0,.913.945A2.6,2.6,0,0,0,139.8,136.368Z" fill="#221751"/><path d="M150.618,138.209a4.511,4.511,0,0,1-2.648-.776,4.17,4.17,0,0,1-1.576-2.121l1.776-.656a3.039,3.039,0,0,0,1.008,1.257,2.505,2.505,0,0,0,1.5.472,2.237,2.237,0,0,0,1.4-.4,1.363,1.363,0,0,0,.52-1.151,1.164,1.164,0,0,0-.144-.568,1.822,1.822,0,0,0-.328-.441,2.161,2.161,0,0,0-.552-.351c-.246-.118-.454-.211-.624-.281s-.422-.157-.752-.263q-.64-.225-.984-.353a6.589,6.589,0,0,1-.88-.424,3.241,3.241,0,0,1-.817-.6,2.849,2.849,0,0,1-.5-.809,2.807,2.807,0,0,1-.215-1.111,2.732,2.732,0,0,1,.992-2.145,3.955,3.955,0,0,1,2.688-.863,3.912,3.912,0,0,1,2.336.664,3.223,3.223,0,0,1,1.248,1.735l-1.728.577a2.309,2.309,0,0,0-3.16-.84,1.035,1.035,0,0,0-.424.887.92.92,0,0,0,.328.689,2.332,2.332,0,0,0,.7.456c.25.1.621.231,1.112.392q.48.175.728.263c.165.06.4.158.7.3a6.119,6.119,0,0,1,.7.376,5.661,5.661,0,0,1,.584.456,2.388,2.388,0,0,1,.5.6,3.69,3.69,0,0,1,.3.736,3.177,3.177,0,0,1,.128.92,3.014,3.014,0,0,1-1.113,2.472A4.333,4.333,0,0,1,150.618,138.209Z" fill="#221751"/><path d="M165.226,138.209a4.857,4.857,0,0,1-2.216-.488,4.052,4.052,0,0,1-1.544-1.321,6.173,6.173,0,0,1-.864-1.839,7.734,7.734,0,0,1-.289-2.144,7.5,7.5,0,0,1,.184-1.648,6.273,6.273,0,0,1,.584-1.569,5.636,5.636,0,0,1,.961-1.319,4.151,4.151,0,0,1,1.384-.912,4.612,4.612,0,0,1,1.8-.344,4.183,4.183,0,0,1,2.368.6,5.366,5.366,0,0,1,1.552,1.656l-1.712.975a2.589,2.589,0,0,0-3.609-1.015,2.452,2.452,0,0,0-.92.96,4.871,4.871,0,0,0-.464,1.256,6.383,6.383,0,0,0-.143,1.36,5.052,5.052,0,0,0,.735,2.8,2.443,2.443,0,0,0,2.193,1.136,2.11,2.11,0,0,0,1.544-.609,2.01,2.01,0,0,0,.616-1.487v-.176h-1.968v-1.809h3.92v1.552a4.383,4.383,0,0,1-1.152,3.225A3.994,3.994,0,0,1,165.226,138.209Z" fill="#221751"/><path d="M171.626,138.017v-11.2h4.96a3.633,3.633,0,0,1,2.808.96,3.709,3.709,0,0,1,.28,4.4,3,3,0,0,1-1.712,1.248l2.239,4.592h-2.159l-2.16-4.384h-2.336v4.384Zm1.92-6.208h3.071a1.615,1.615,0,0,0,1.265-.449,1.64,1.64,0,0,0,.4-1.135,1.688,1.688,0,0,0-.384-1.128,1.588,1.588,0,0,0-1.28-.456h-3.071Z" fill="#221751"/><path d="M189.723,138.017l-.881-2.449H184.41l-.88,2.449H181.5l4.176-11.2h1.9l4.16,11.2Zm-1.489-4.176L187,130.48a8.822,8.822,0,0,1-.368-1.135q-.127.463-.367,1.135l-1.248,3.361Z" fill="#221751"/><path d="M196.554,128.656v9.361h-1.92v-9.361h-3.185v-1.84h8.288v1.84Z" fill="#221751"/><path d="M206.026,138.209a5.647,5.647,0,0,1-1.664-.232,4.1,4.1,0,0,1-1.376-.737,3.306,3.306,0,0,1-.976-1.391,5.692,5.692,0,0,1-.352-2.1v-6.928h1.92v6.928a2.692,2.692,0,0,0,.632,2.04,3.1,3.1,0,0,0,3.632-.008,2.7,2.7,0,0,0,.632-2.032v-6.928h1.92v6.928a5.781,5.781,0,0,1-.344,2.089,3.3,3.3,0,0,1-.96,1.392,4.106,4.106,0,0,1-1.376.744A5.588,5.588,0,0,1,206.026,138.209Z" fill="#221751"/><path d="M213.114,138.017v-11.2h1.92v11.2Z" fill="#221751"/><path d="M222.218,128.656v9.361H220.3v-9.361h-3.185v-1.84H225.4v1.84Z" fill="#221751"/><path d="M231.386,138.209a5.078,5.078,0,0,1-1.888-.336,3.958,3.958,0,0,1-1.4-.9,5.2,5.2,0,0,1-.928-1.321,6.1,6.1,0,0,1-.536-1.559,8.821,8.821,0,0,1,0-3.345,6.115,6.115,0,0,1,.536-1.559,5.217,5.217,0,0,1,.928-1.321,3.956,3.956,0,0,1,1.4-.9,5.058,5.058,0,0,1,1.888-.336,4.935,4.935,0,0,1,2.28.5,3.9,3.9,0,0,1,1.536,1.359,6.663,6.663,0,0,1,.823,1.849,8.06,8.06,0,0,1,0,4.16,6.644,6.644,0,0,1-.823,1.848,3.913,3.913,0,0,1-1.536,1.36A4.935,4.935,0,0,1,231.386,138.209Zm0-1.841a2.528,2.528,0,0,0,1.36-.367,2.583,2.583,0,0,0,.92-.969,5.114,5.114,0,0,0,.487-1.263,5.74,5.74,0,0,0,.16-1.352,5.935,5.935,0,0,0-.16-1.4,4.975,4.975,0,0,0-.487-1.256,2.514,2.514,0,0,0-.912-.945,2.608,2.608,0,0,0-1.368-.351,2.4,2.4,0,0,0-1.712.647,3.433,3.433,0,0,0-.952,1.5,6.261,6.261,0,0,0-.105,3.2,5.029,5.029,0,0,0,.488,1.263,2.5,2.5,0,0,0,.913.945A2.6,2.6,0,0,0,231.386,136.368Z" fill="#221751"/><path d="M242.2,138.209a4.511,4.511,0,0,1-2.648-.776,4.165,4.165,0,0,1-1.576-2.121l1.776-.656a3.039,3.039,0,0,0,1.008,1.257,2.505,2.505,0,0,0,1.5.472,2.237,2.237,0,0,0,1.4-.4,1.363,1.363,0,0,0,.52-1.151,1.164,1.164,0,0,0-.144-.568,1.822,1.822,0,0,0-.328-.441,2.161,2.161,0,0,0-.552-.351c-.246-.118-.454-.211-.624-.281s-.422-.157-.752-.263q-.64-.225-.984-.353a6.589,6.589,0,0,1-.88-.424,3.241,3.241,0,0,1-.817-.6,2.849,2.849,0,0,1-.5-.809,2.807,2.807,0,0,1-.215-1.111,2.732,2.732,0,0,1,.992-2.145,3.955,3.955,0,0,1,2.688-.863,3.912,3.912,0,0,1,2.336.664,3.223,3.223,0,0,1,1.248,1.735l-1.728.577a2.309,2.309,0,0,0-3.16-.84,1.035,1.035,0,0,0-.424.887.92.92,0,0,0,.328.689,2.332,2.332,0,0,0,.7.456c.25.1.621.231,1.112.392q.48.175.728.263c.165.06.4.158.7.3a6.119,6.119,0,0,1,.7.376,5.661,5.661,0,0,1,.584.456,2.388,2.388,0,0,1,.5.6,3.69,3.69,0,0,1,.3.736,3.177,3.177,0,0,1,.128.92,3.014,3.014,0,0,1-1.113,2.472A4.333,4.333,0,0,1,242.2,138.209Z" fill="#221751"/><path d="M40.46,182.017v-11.2h4.96a3.633,3.633,0,0,1,2.808.96,3.709,3.709,0,0,1,.28,4.4,3,3,0,0,1-1.712,1.248l2.239,4.592H46.876l-2.16-4.384H42.38v4.384Zm1.92-6.208h3.071a1.615,1.615,0,0,0,1.265-.449,1.64,1.64,0,0,0,.4-1.135,1.688,1.688,0,0,0-.384-1.128,1.588,1.588,0,0,0-1.28-.456H42.38Z" fill="#221751"/><path d="M51.42,182.017v-11.2h7.3v1.809H53.34v2.7h3.311v1.809H53.34v3.072h5.727v1.808Z" fill="#221751"/><path d="M61.228,182.017v-11.2h4.655a3.659,3.659,0,0,1,2.848,1.008,3.679,3.679,0,0,1-.04,4.9,3.587,3.587,0,0,1-2.808,1.055H63.147v4.241Zm4.751-6.065a1.557,1.557,0,0,0,1.264-.5,1.76,1.76,0,0,0,.416-1.168,1.818,1.818,0,0,0-.391-1.144,1.536,1.536,0,0,0-1.289-.5H63.147v3.311Z" fill="#221751"/><path d="M75.611,182.209a5.647,5.647,0,0,1-1.664-.232,4.1,4.1,0,0,1-1.376-.737,3.306,3.306,0,0,1-.976-1.391,5.692,5.692,0,0,1-.352-2.1v-6.928h1.92v6.928a2.692,2.692,0,0,0,.632,2.04,3.1,3.1,0,0,0,3.632-.008,2.7,2.7,0,0,0,.632-2.032v-6.928h1.92v6.928a5.781,5.781,0,0,1-.344,2.089,3.3,3.3,0,0,1-.96,1.392,4.106,4.106,0,0,1-1.376.744A5.592,5.592,0,0,1,75.611,182.209Z" fill="#221751"/><path d="M82.62,182.017v-11.2h7.3v1.809H84.54v2.7h3.312v1.809H84.54v3.072h5.728v1.808Z" fill="#221751"/><path d="M96.012,182.209a4.512,4.512,0,0,1-2.649-.776,4.176,4.176,0,0,1-1.576-2.121l1.776-.656a3.054,3.054,0,0,0,1.008,1.257,2.509,2.509,0,0,0,1.5.472,2.24,2.24,0,0,0,1.4-.4A1.365,1.365,0,0,0,98,178.833a1.174,1.174,0,0,0-.143-.568,1.8,1.8,0,0,0-.329-.441,2.153,2.153,0,0,0-.551-.351c-.246-.118-.454-.211-.624-.281s-.422-.157-.752-.263q-.641-.225-.985-.353a6.709,6.709,0,0,1-.88-.424,3.252,3.252,0,0,1-.816-.6,2.827,2.827,0,0,1-.5-.809,2.79,2.79,0,0,1-.216-1.111,2.732,2.732,0,0,1,.992-2.145,3.958,3.958,0,0,1,2.689-.863,3.914,3.914,0,0,1,2.336.664,3.223,3.223,0,0,1,1.248,1.735l-1.729.577a2.309,2.309,0,0,0-3.16-.84,1.038,1.038,0,0,0-.424.887.923.923,0,0,0,.328.689,2.336,2.336,0,0,0,.7.456c.25.1.621.231,1.112.392.319.117.562.2.727.263s.4.158.7.3a6.206,6.206,0,0,1,.7.376,5.661,5.661,0,0,1,.584.456,2.43,2.43,0,0,1,.5.6,3.691,3.691,0,0,1,.3.736,3.177,3.177,0,0,1,.128.92,3.016,3.016,0,0,1-1.112,2.472A4.335,4.335,0,0,1,96.012,182.209Z" fill="#221751"/><path d="M106.571,172.656v9.361h-1.92v-9.361h-3.184v-1.84h8.288v1.84Z" fill="#221751"/><path d="M115.739,182.209a5.076,5.076,0,0,1-1.887-.336,3.953,3.953,0,0,1-1.4-.9,5.224,5.224,0,0,1-.928-1.321,6.14,6.14,0,0,1-.536-1.559,8.821,8.821,0,0,1,0-3.345,6.154,6.154,0,0,1,.536-1.559,5.242,5.242,0,0,1,.928-1.321,3.951,3.951,0,0,1,1.4-.9,5.056,5.056,0,0,1,1.887-.336,4.939,4.939,0,0,1,2.281.5,3.9,3.9,0,0,1,1.536,1.359,6.692,6.692,0,0,1,.823,1.849,8.089,8.089,0,0,1,0,4.16,6.673,6.673,0,0,1-.823,1.848,3.913,3.913,0,0,1-1.536,1.36A4.939,4.939,0,0,1,115.739,182.209Zm0-1.841A2.531,2.531,0,0,0,117.1,180a2.591,2.591,0,0,0,.92-.969,5.194,5.194,0,0,0,.487-1.263,5.793,5.793,0,0,0,.16-1.352,5.988,5.988,0,0,0-.16-1.4,5.052,5.052,0,0,0-.487-1.256,2.517,2.517,0,0,0-.913-.945,2.6,2.6,0,0,0-1.368-.351,2.4,2.4,0,0,0-1.712.647,3.442,3.442,0,0,0-.952,1.5,6.055,6.055,0,0,0-.263,1.809,5.984,5.984,0,0,0,.159,1.392,4.954,4.954,0,0,0,.488,1.263,2.492,2.492,0,0,0,.912.945A2.608,2.608,0,0,0,115.739,180.368Z" fill="#221751"/><path d="M126.556,182.209a4.512,4.512,0,0,1-2.649-.776,4.176,4.176,0,0,1-1.576-2.121l1.776-.656a3.054,3.054,0,0,0,1.008,1.257,2.509,2.509,0,0,0,1.5.472,2.24,2.24,0,0,0,1.4-.4,1.365,1.365,0,0,0,.519-1.151,1.174,1.174,0,0,0-.143-.568,1.825,1.825,0,0,0-.329-.441,2.153,2.153,0,0,0-.551-.351c-.246-.118-.454-.211-.624-.281s-.422-.157-.752-.263q-.641-.225-.985-.353a6.709,6.709,0,0,1-.88-.424,3.252,3.252,0,0,1-.816-.6,2.922,2.922,0,0,1-.712-1.92,2.732,2.732,0,0,1,.992-2.145,3.958,3.958,0,0,1,2.689-.863,3.914,3.914,0,0,1,2.336.664,3.223,3.223,0,0,1,1.248,1.735l-1.729.577a2.309,2.309,0,0,0-3.16-.84,1.038,1.038,0,0,0-.424.887.923.923,0,0,0,.328.689,2.332,2.332,0,0,0,.7.456c.25.1.622.231,1.113.392.319.117.562.2.727.263s.4.158.7.3a6.206,6.206,0,0,1,.7.376,5.661,5.661,0,0,1,.584.456,2.43,2.43,0,0,1,.5.6,3.691,3.691,0,0,1,.3.736,3.177,3.177,0,0,1,.128.92,3.016,3.016,0,0,1-1.112,2.472A4.335,4.335,0,0,1,126.556,182.209Z" fill="#221751"/><path d="M140.939,182.209a4.749,4.749,0,0,1-1.824-.336,3.733,3.733,0,0,1-1.336-.9,5.01,5.01,0,0,1-.872-1.329,6.75,6.75,0,0,1-.5-1.567,8.94,8.94,0,0,1-.152-1.664,7.83,7.83,0,0,1,.256-2,6.982,6.982,0,0,1,.784-1.849,4,4,0,0,1,1.472-1.408,4.343,4.343,0,0,1,2.176-.535,4.288,4.288,0,0,1,2.5.695,3.763,3.763,0,0,1,1.408,1.689l-1.728.784a3.409,3.409,0,0,0-.936-1.009,2.222,2.222,0,0,0-1.24-.319,2.311,2.311,0,0,0-1.288.359,2.387,2.387,0,0,0-.848.96,5.208,5.208,0,0,0-.432,1.265,6.767,6.767,0,0,0-.136,1.368,5.332,5.332,0,0,0,.7,2.752,2.205,2.205,0,0,0,2.008,1.184,2.5,2.5,0,0,0,2.144-1.44l1.776.672A4.017,4.017,0,0,1,140.939,182.209Z" fill="#221751"/><path d="M146.971,182.017v-11.2h7.3v1.809h-5.376v2.7H152.2v1.809h-3.311v3.072h5.727v1.808Z" fill="#221751"/><path d="M156.778,182.017v-11.2h4.96a3.632,3.632,0,0,1,2.808.96,3.709,3.709,0,0,1,.28,4.4,3,3,0,0,1-1.712,1.248l2.24,4.592h-2.16l-2.16-4.384H158.7v4.384Zm1.92-6.208h3.072a1.612,1.612,0,0,0,1.264-.449,1.636,1.636,0,0,0,.4-1.135,1.688,1.688,0,0,0-.384-1.128,1.59,1.59,0,0,0-1.28-.456H158.7Z" fill="#221751"/><path d="M171.883,172.656v9.361h-1.92v-9.361h-3.185v-1.84h8.288v1.84Z" fill="#221751"/><path d="M177.146,182.017v-11.2h1.92v11.2Z" fill="#221751"/><path d="M181.866,182.017v-11.2H189.1v1.809h-5.312v2.7h3.392v1.809h-3.392v4.88Z" fill="#221751"/><path d="M191.019,182.017v-11.2h1.919v11.2Z" fill="#221751"/><path d="M200.025,182.209a4.749,4.749,0,0,1-1.824-.336,3.733,3.733,0,0,1-1.336-.9,5.01,5.01,0,0,1-.872-1.329,6.75,6.75,0,0,1-.5-1.567,8.94,8.94,0,0,1-.152-1.664,7.83,7.83,0,0,1,.256-2,6.982,6.982,0,0,1,.784-1.849,4,4,0,0,1,1.472-1.408,4.343,4.343,0,0,1,2.176-.535,4.288,4.288,0,0,1,2.5.695,3.763,3.763,0,0,1,1.408,1.689l-1.728.784a3.409,3.409,0,0,0-.936-1.009,2.224,2.224,0,0,0-1.24-.319,2.309,2.309,0,0,0-1.288.359,2.387,2.387,0,0,0-.848.96,5.208,5.208,0,0,0-.432,1.265,6.767,6.767,0,0,0-.136,1.368,5.332,5.332,0,0,0,.7,2.752,2.2,2.2,0,0,0,2.008,1.184,2.5,2.5,0,0,0,2.144-1.44l1.776.672A4.017,4.017,0,0,1,200.025,182.209Z" fill="#221751"/><path d="M213.226,182.017l-.881-2.449h-4.432l-.88,2.449H205l4.176-11.2h1.9l4.16,11.2Zm-1.489-4.176-1.232-3.361a8.822,8.822,0,0,1-.368-1.135q-.127.463-.367,1.135l-1.249,3.361Z" fill="#221751"/><path d="M216.954,170.816h3.456a6.312,6.312,0,0,1,2.064.321,4.378,4.378,0,0,1,2.551,2.1,5.76,5.76,0,0,1,.593,1.521,7.469,7.469,0,0,1,.016,3.223,5.676,5.676,0,0,1-.576,1.513,4.973,4.973,0,0,1-1.016,1.3,4.549,4.549,0,0,1-1.561.888,6.406,6.406,0,0,1-2.135.336h-3.392Zm3.664,9.393a3.2,3.2,0,0,0,1.5-.336,2.557,2.557,0,0,0,1.009-.9,4.267,4.267,0,0,0,.527-1.208,5.232,5.232,0,0,0,.168-1.344,4.6,4.6,0,0,0-.767-2.681,2.566,2.566,0,0,0-2.256-1.111h-1.92v7.584Z" fill="#221751"/><path d="M232.634,182.209a5.081,5.081,0,0,1-1.888-.336,3.958,3.958,0,0,1-1.4-.9,5.224,5.224,0,0,1-.928-1.321,6.1,6.1,0,0,1-.536-1.559,8.821,8.821,0,0,1,0-3.345,6.115,6.115,0,0,1,.536-1.559,5.242,5.242,0,0,1,.928-1.321,3.956,3.956,0,0,1,1.4-.9,5.061,5.061,0,0,1,1.888-.336,4.935,4.935,0,0,1,2.28.5,3.9,3.9,0,0,1,1.536,1.359,6.663,6.663,0,0,1,.823,1.849,8.06,8.06,0,0,1,0,4.16,6.644,6.644,0,0,1-.823,1.848,3.913,3.913,0,0,1-1.536,1.36A4.935,4.935,0,0,1,232.634,182.209Zm0-1.841a2.526,2.526,0,0,0,1.36-.367,2.583,2.583,0,0,0,.92-.969,5.114,5.114,0,0,0,.487-1.263,5.741,5.741,0,0,0,.161-1.352,5.935,5.935,0,0,0-.161-1.4,4.975,4.975,0,0,0-.487-1.256,2.514,2.514,0,0,0-.912-.945,2.608,2.608,0,0,0-1.368-.351,2.4,2.4,0,0,0-1.712.647,3.442,3.442,0,0,0-.952,1.5,6.261,6.261,0,0,0-.1,3.2,4.993,4.993,0,0,0,.489,1.263,2.485,2.485,0,0,0,.912.945A2.6,2.6,0,0,0,232.634,180.368Z" fill="#221751"/><path d="M243.449,182.209a4.511,4.511,0,0,1-2.648-.776,4.17,4.17,0,0,1-1.576-2.121l1.776-.656a3.039,3.039,0,0,0,1.008,1.257,2.505,2.505,0,0,0,1.5.472,2.237,2.237,0,0,0,1.4-.4,1.363,1.363,0,0,0,.52-1.151,1.164,1.164,0,0,0-.144-.568,1.822,1.822,0,0,0-.328-.441,2.161,2.161,0,0,0-.552-.351c-.246-.118-.454-.211-.624-.281s-.422-.157-.752-.263q-.641-.225-.984-.353a6.589,6.589,0,0,1-.88-.424,3.234,3.234,0,0,1-.816-.6,2.909,2.909,0,0,1-.712-1.92,2.732,2.732,0,0,1,.992-2.145,3.955,3.955,0,0,1,2.688-.863,3.912,3.912,0,0,1,2.336.664,3.223,3.223,0,0,1,1.248,1.735l-1.728.577a2.309,2.309,0,0,0-3.16-.84,1.035,1.035,0,0,0-.424.887.92.92,0,0,0,.328.689,2.332,2.332,0,0,0,.7.456c.25.1.621.231,1.112.392q.48.175.728.263c.165.06.4.158.7.3a6.119,6.119,0,0,1,.7.376,5.661,5.661,0,0,1,.584.456,2.388,2.388,0,0,1,.5.6,3.69,3.69,0,0,1,.3.736,3.177,3.177,0,0,1,.128.92,3.014,3.014,0,0,1-1.113,2.472A4.333,4.333,0,0,1,243.449,182.209Z" fill="#221751"/><path d="M84.1,37.175a6.587,6.587,0,0,1-4.037-1.254,6.882,6.882,0,0,1-2.426-3.462l3.128-1.173a5.069,5.069,0,0,0,1.449,1.875,3.134,3.134,0,0,0,1.978.7,3.184,3.184,0,0,0,1.771-.425,1.384,1.384,0,0,0,.644-1.231,1.232,1.232,0,0,0-.471-.942,3.222,3.222,0,0,0-.99-.61c-.344-.131-.878-.31-1.6-.541q-.714-.229-1.07-.356t-1.023-.4a6.064,6.064,0,0,1-1.012-.5q-.345-.231-.828-.621a2.941,2.941,0,0,1-.724-.817,5.055,5.055,0,0,1-.426-1.035,4.465,4.465,0,0,1-.184-1.3A4.118,4.118,0,0,1,79.8,21.833a6.085,6.085,0,0,1,4.117-1.311,5.806,5.806,0,0,1,3.634,1.127,5.331,5.331,0,0,1,1.955,2.9L86.38,25.56a2.677,2.677,0,0,0-2.645-1.726q-1.954,0-1.955,1.312a.823.823,0,0,0,.184.529,1.928,1.928,0,0,0,.667.46q.483.229.794.344c.207.078.57.208,1.092.391.552.185.977.33,1.277.438s.709.272,1.23.494a4.887,4.887,0,0,1,1.231.713,10.157,10.157,0,0,1,.931.909,3.223,3.223,0,0,1,.7,1.241,5.346,5.346,0,0,1,.218,1.564,4.35,4.35,0,0,1-1.7,3.612A6.767,6.767,0,0,1,84.1,37.175Z" fill="#56c4cf"/><path d="M92.842,36.9V20.8h11.569V24.11H96.338v2.829h4.508v3.312H96.338v3.312h8.533V36.9Z" fill="#56c4cf"/><path d="M107.493,36.9V20.8h7.844a5.383,5.383,0,0,1,4.2,1.448,5.407,5.407,0,0,1,1.3,3.749,5.519,5.519,0,0,1-.782,2.783,4.3,4.3,0,0,1-2.14,1.909l3.014,6.21h-3.91l-2.921-5.68h-3.106V36.9Zm3.5-8.993h4.394q1.817,0,1.816-1.909a2.107,2.107,0,0,0-.425-1.345,1.667,1.667,0,0,0-1.391-.541h-4.394Z" fill="#56c4cf"/><path d="M127.779,36.9l-5.8-16.1h3.8l3.473,10.142a3.11,3.11,0,0,1,.139.438l.068.253c.03-.139.1-.368.207-.691L133.139,20.8h3.748l-5.773,16.1Z" fill="#56c4cf"/><path d="M138.658,36.9V20.8h3.5V36.9Z" fill="#56c4cf"/><path d="M151.905,37.129a6.708,6.708,0,0,1-3.185-.725,5.443,5.443,0,0,1-2.127-1.944,9.225,9.225,0,0,1-1.115-2.621,12.051,12.051,0,0,1-.357-2.99,11.083,11.083,0,0,1,.367-2.841,10.029,10.029,0,0,1,1.127-2.645,5.7,5.7,0,0,1,2.128-2.024,6.333,6.333,0,0,1,3.162-.771,6.145,6.145,0,0,1,3.727,1.127,6.233,6.233,0,0,1,2.184,2.738l-3.128,1.4a6.043,6.043,0,0,0-1.276-1.448,2.426,2.426,0,0,0-1.507-.46,2.547,2.547,0,0,0-1.494.448,2.9,2.9,0,0,0-.989,1.2,6.793,6.793,0,0,0-.506,1.564,8.871,8.871,0,0,0-.161,1.714,8.287,8.287,0,0,0,.31,2.3A4.333,4.333,0,0,0,150.123,33a2.4,2.4,0,0,0,1.782.771q1.5,0,2.738-2.071l3.2,1.2Q155.884,37.129,151.905,37.129Z" fill="#56c4cf"/><path d="M160.416,36.9V20.8h3.5V36.9Z" fill="#56c4cf"/><path d="M174.031,37.175a7.449,7.449,0,0,1-2.748-.484,5.771,5.771,0,0,1-2.036-1.3,7.362,7.362,0,0,1-1.345-1.9,9.19,9.19,0,0,1-.782-2.242,12.106,12.106,0,0,1,0-4.807A9.212,9.212,0,0,1,167.9,24.2a7.391,7.391,0,0,1,1.345-1.9,5.771,5.771,0,0,1,2.036-1.3,7.47,7.47,0,0,1,2.748-.484,7.166,7.166,0,0,1,3.289.725,5.664,5.664,0,0,1,2.232,1.955,9.612,9.612,0,0,1,1.207,2.656,11.324,11.324,0,0,1,0,5.981,9.612,9.612,0,0,1-1.207,2.656,5.672,5.672,0,0,1-2.232,1.955A7.166,7.166,0,0,1,174.031,37.175Zm0-3.382a2.777,2.777,0,0,0,2.025-.816,4.407,4.407,0,0,0,1.149-1.886,7.722,7.722,0,0,0,.322-2.242,8.574,8.574,0,0,0-.3-2.312,4.069,4.069,0,0,0-1.127-1.863,3.081,3.081,0,0,0-4.152.023,4.154,4.154,0,0,0-1.138,1.886,8.358,8.358,0,0,0-.3,2.266,7.907,7.907,0,0,0,.183,1.724,6.415,6.415,0,0,0,.575,1.576,3.072,3.072,0,0,0,1.105,1.2A3.039,3.039,0,0,0,174.031,33.793Z" fill="#56c4cf"/><path d="M189.947,36.9V20.8h7.131a5.486,5.486,0,0,1,4.243,1.494,5.544,5.544,0,0,1,1.046,5.509,5.347,5.347,0,0,1-.966,1.644,4.478,4.478,0,0,1-1.77,1.219,6.685,6.685,0,0,1-2.553.46h-3.635V36.9Zm7.269-9.061a1.7,1.7,0,0,0,1.38-.553,1.985,1.985,0,0,0,.46-1.31,2.063,2.063,0,0,0-.437-1.3,1.669,1.669,0,0,0-1.4-.564h-3.773v3.727Z" fill="#56c4cf"/><path d="M204.735,36.9V20.8h7.844a5.383,5.383,0,0,1,4.2,1.448,5.4,5.4,0,0,1,1.3,3.749,5.519,5.519,0,0,1-.782,2.783,4.294,4.294,0,0,1-2.14,1.909l3.014,6.21h-3.91l-2.921-5.68h-3.106V36.9Zm3.5-8.993h4.394q1.817,0,1.816-1.909a2.112,2.112,0,0,0-.424-1.345,1.669,1.669,0,0,0-1.392-.541h-4.394Z" fill="#56c4cf"/><path d="M227.114,37.175a7.449,7.449,0,0,1-2.748-.484,5.771,5.771,0,0,1-2.036-1.3,7.362,7.362,0,0,1-1.345-1.9,9.19,9.19,0,0,1-.782-2.242,12.106,12.106,0,0,1,0-4.807,9.212,9.212,0,0,1,.782-2.243,7.391,7.391,0,0,1,1.345-1.9,5.771,5.771,0,0,1,2.036-1.3,7.47,7.47,0,0,1,2.748-.484,7.166,7.166,0,0,1,3.289.725,5.664,5.664,0,0,1,2.232,1.955,9.612,9.612,0,0,1,1.207,2.656,11.324,11.324,0,0,1,0,5.981,9.612,9.612,0,0,1-1.207,2.656A5.672,5.672,0,0,1,230.4,36.45,7.166,7.166,0,0,1,227.114,37.175Zm0-3.382a2.777,2.777,0,0,0,2.025-.816,4.407,4.407,0,0,0,1.149-1.886,7.722,7.722,0,0,0,.322-2.242,8.574,8.574,0,0,0-.3-2.312,4.069,4.069,0,0,0-1.127-1.863,3.081,3.081,0,0,0-4.152.023,4.154,4.154,0,0,0-1.138,1.886,8.358,8.358,0,0,0-.3,2.266,7.907,7.907,0,0,0,.183,1.724,6.415,6.415,0,0,0,.575,1.576,3.072,3.072,0,0,0,1.1,1.2A3.039,3.039,0,0,0,227.114,33.793Z" fill="#56c4cf"/><path d="M237.1,36.9V20.8h11.224V24.11h-7.728v2.829h4.853v3.312h-4.853V36.9Z" fill="#56c4cf"/><path d="M250.459,36.9V20.8h11.569V24.11h-8.073v2.829h4.508v3.312h-4.508v3.312h8.533V36.9Z" fill="#56c4cf"/><path d="M270.653,37.175a6.586,6.586,0,0,1-4.036-1.254,6.889,6.889,0,0,1-2.427-3.462l3.128-1.173a5.082,5.082,0,0,0,1.45,1.875,3.132,3.132,0,0,0,1.978.7,3.184,3.184,0,0,0,1.771-.425,1.387,1.387,0,0,0,.644-1.231,1.23,1.23,0,0,0-.472-.942,3.206,3.206,0,0,0-.989-.61c-.345-.131-.878-.31-1.6-.541q-.714-.229-1.07-.356t-1.023-.4a6.025,6.025,0,0,1-1.012-.5q-.345-.231-.828-.621a2.946,2.946,0,0,1-.725-.817,5.114,5.114,0,0,1-.425-1.035,4.465,4.465,0,0,1-.184-1.3,4.118,4.118,0,0,1,1.518-3.243,6.083,6.083,0,0,1,4.117-1.311,5.806,5.806,0,0,1,3.634,1.127,5.336,5.336,0,0,1,1.955,2.9l-3.128,1.012a2.677,2.677,0,0,0-2.645-1.726q-1.956,0-1.955,1.312a.823.823,0,0,0,.184.529,1.918,1.918,0,0,0,.667.46q.483.229.794.344t1.091.391c.553.185.978.33,1.278.438s.709.272,1.23.494a4.887,4.887,0,0,1,1.231.713,10.154,10.154,0,0,1,.93.909,3.2,3.2,0,0,1,.7,1.241,5.312,5.312,0,0,1,.219,1.564,4.35,4.35,0,0,1-1.7,3.612A6.769,6.769,0,0,1,270.653,37.175Z" fill="#56c4cf"/><path d="M279.508,36.9V20.8H283V36.9Z" fill="#56c4cf"/><path d="M293.123,37.175a7.442,7.442,0,0,1-2.748-.484,5.771,5.771,0,0,1-2.036-1.3,7.362,7.362,0,0,1-1.345-1.9,9.19,9.19,0,0,1-.782-2.242,12.106,12.106,0,0,1,0-4.807,9.212,9.212,0,0,1,.782-2.243,7.391,7.391,0,0,1,1.345-1.9,5.771,5.771,0,0,1,2.036-1.3,7.462,7.462,0,0,1,2.748-.484,7.166,7.166,0,0,1,3.289.725,5.671,5.671,0,0,1,2.232,1.955,9.612,9.612,0,0,1,1.207,2.656,11.324,11.324,0,0,1,0,5.981,9.612,9.612,0,0,1-1.207,2.656,5.679,5.679,0,0,1-2.232,1.955A7.166,7.166,0,0,1,293.123,37.175Zm0-3.382a2.773,2.773,0,0,0,2.024-.816,4.4,4.4,0,0,0,1.15-1.886,7.722,7.722,0,0,0,.322-2.242,8.534,8.534,0,0,0-.3-2.312,4.052,4.052,0,0,0-1.127-1.863,3.08,3.08,0,0,0-4.151.023,4.156,4.156,0,0,0-1.139,1.886,8.4,8.4,0,0,0-.3,2.266,7.907,7.907,0,0,0,.184,1.724,6.415,6.415,0,0,0,.575,1.576,3.072,3.072,0,0,0,1.105,1.2A3.036,3.036,0,0,0,293.123,33.793Z" fill="#56c4cf"/><path d="M316.308,36.9h-3.059l-6.072-8.533a8.586,8.586,0,0,1-.69-1.219,7.73,7.73,0,0,1,.069,1.219V36.9h-3.451V20.8h3.2l5.911,8.44a5.939,5.939,0,0,1,.667,1.2,8.9,8.9,0,0,1-.069-1.219V20.8h3.5Z" fill="#56c4cf"/><path d="M330.591,36.9l-1.2-3.127h-6.049l-1.2,3.127h-3.818l6.349-16.1h3.357l6.371,16.1Zm-2.369-6.347-1.38-3.474a12.545,12.545,0,0,1-.484-1.356,11.089,11.089,0,0,1-.482,1.356L324.5,30.551Z" fill="#56c4cf"/><path d="M336.455,36.9V20.8h3.5V33.518h7.729V36.9Z" fill="#56c4cf"/><path d="M21,81.866a7,7,0,1,0,7,7A7,7,0,0,0,21,81.866Zm0,13a6,6,0,1,1,6-6A6,6,0,0,1,21,94.866Z" fill="#be1d7b"/><path d="M24.841,86.013a.5.5,0,0,0-.694,0h0L19.5,90.659l-1.647-1.647a.5.5,0,0,0-.719.695l.012.012,2,2a.5.5,0,0,0,.706,0l5-5A.5.5,0,0,0,24.841,86.013Z" fill="#be1d7b"/><path d="M21,124.866a7,7,0,1,0,7,7A7,7,0,0,0,21,124.866Zm0,13a6,6,0,1,1,6-6A6,6,0,0,1,21,137.866Z" fill="#be1d7b"/><path d="M24.841,129.013a.5.5,0,0,0-.694,0h0L19.5,133.659l-1.647-1.647a.5.5,0,0,0-.719.695l.012.012,2,2a.5.5,0,0,0,.706,0l5-5A.5.5,0,0,0,24.841,129.013Z" fill="#be1d7b"/><path d="M21,167.866a7,7,0,1,0,7,7A7,7,0,0,0,21,167.866Zm0,13a6,6,0,1,1,6-6A6,6,0,0,1,21,180.866Z" fill="#be1d7b"/><path d="M24.841,172.013a.5.5,0,0,0-.694,0h0L19.5,176.659l-1.647-1.647a.5.5,0,0,0-.719.695l.012.012,2,2a.5.5,0,0,0,.706,0l5-5A.5.5,0,0,0,24.841,172.013Z" fill="#be1d7b"/></svg>